<svg xmlns="http://www.w3.org/2000/svg" width="34.761" height="31.86" viewBox="0 0 34.761 31.86"><path d="M33.333,27.139H6.154l-.4-4.5a1.428,1.428,0,0,0-1.422-1.3h-2.9a1.428,1.428,0,1,0,0,2.855h1.6C3.895,33.906,1.642,8.8,4.665,42.486a5.492,5.492,0,0,0,2.056,3.721A4.327,4.327,0,1,0,14.2,47.4h7.813a4.328,4.328,0,1,0,4.07-2.855H10.139A2.651,2.651,0,0,1,7.7,42.934l22.815-1.341a1.428,1.428,0,0,0,1.3-1.079l2.9-11.6A1.428,1.428,0,0,0,33.333,27.139Zm-23.2,23.2A1.473,1.473,0,1,1,11.6,48.87,1.475,1.475,0,0,1,10.129,50.343Zm15.953,0a1.473,1.473,0,1,1,1.473-1.473A1.475,1.475,0,0,1,26.082,50.343ZM29.3,38.8,7.317,40.1l-.907-10.1H31.5Z" transform="translate(0 -21.338)"/></svg>