<svg xmlns="http://www.w3.org/2000/svg" width="13.065" height="10.057" viewBox="0 0 13.065 10.057"><defs><style>.a{fill:#262626;}</style></defs><path class="a" d="M136.584,103.955a1.035,1.035,0,0,1,1.021-1.254h6.11a1.033,1.033,0,0,1,1.012,1.254l-.817,3.752a1.025,1.025,0,0,1-1.012.817h-4.485a1.033,1.033,0,0,1-1.012-.817Zm7.93,5.4h-7.531l-1.829-7.159a.544.544,0,0,0-.52-.409h-2.108a.539.539,0,0,0,0,1.077h1.69l1.829,7.159a.544.544,0,0,0,.52.409h.808a.873.873,0,0,0-.111.436.98.98,0,1,0,1.848-.436h3.1a.872.872,0,0,0-.111.436.975.975,0,1,0,1.848-.436h.567a.539.539,0,1,0,0-1.077Z" transform="translate(-131.988 -101.791)"/></svg>