<?xml version="1.0" encoding="utf-8"?>
<!-- Generator: Adobe Illustrator 23.0.3, SVG Export Plug-In . SVG Version: 6.00 Build 0)  -->
<svg version="1.1" id="Layer_1" xmlns="http://www.w3.org/2000/svg" xmlns:xlink="http://www.w3.org/1999/xlink" x="0px" y="0px"
	 viewBox="0 0 540 251" style="enable-background:new 0 0 540 251;" xml:space="preserve">
<style type="text/css">
	.st0{opacity:0.2;fill-rule:evenodd;clip-rule:evenodd;}
	.st1{fill-rule:evenodd;clip-rule:evenodd;fill:#BFD6E3;}
	.st2{fill-rule:evenodd;clip-rule:evenodd;fill:url(#SVGID_1_);}
</style>
<path class="st0" d="M513.21,83.75c-18.29,9.63-54.87,15.72-55.52,83.11c0.96,27.92-5.78,56.16-43,74.45
	c-19.9,9.95-59.37,17.33-99.8-12.84c-10.88-8.52-28.81-23.65-46.22-23.96c-5.74,0.59-11.5,2.66-16.99,5.46
	c-0.37,0.27-0.73,0.55-1.1,0.85c0-0.09,0-0.19,0-0.28c-9.9,5.24-18.91,12.68-25.4,17.76c-40.43,30.16-79.9,22.78-99.8,12.84
	c-37.22-18.29-43.96-46.53-43-74.45c-0.64-67.39-37.22-73.49-55.52-83.11C-16.77,58.87,7.94,12.34,7.94,12.34l524.21,0.17
	C532.14,12.51,556.85,59.04,513.21,83.75z"/>
<path class="st1" d="M513.21,76.75c-18.29,9.63-54.87,15.72-55.52,83.11c0.96,27.92-5.78,56.16-43,74.45
	c-19.9,9.95-59.37,17.33-99.8-12.84c-10.88-8.52-28.81-23.65-46.22-23.96c-5.74,0.59-11.5,2.66-16.99,5.46
	c-0.37,0.27-0.73,0.55-1.1,0.85c0-0.09,0-0.19,0-0.28c-9.9,5.24-18.91,12.68-25.4,17.76c-40.43,30.16-79.9,22.78-99.8,12.84
	c-37.22-18.29-43.96-46.53-43-74.45c-0.64-67.39-37.22-73.49-55.52-83.11C-16.77,51.87,7.94,5.34,7.94,5.34l524.21,0.17
	C532.14,5.51,556.85,52.04,513.21,76.75z"/>
<linearGradient id="SVGID_1_" gradientUnits="userSpaceOnUse" x1="270.0417" y1="246.7182" x2="270.0417" y2="5.8939">
	<stop  offset="0" style="stop-color:#FBFCFD"/>
	<stop  offset="1" style="stop-color:#ECF3F6"/>
</linearGradient>
<path class="st2" d="M513.21,71.75c-18.29,9.63-54.87,15.72-55.52,83.11c0.96,27.92-5.78,56.16-43,74.45
	c-19.9,9.95-59.37,17.33-99.8-12.84c-10.88-8.52-28.81-23.65-46.22-23.96c-5.74,0.59-11.5,2.66-16.99,5.46
	c-0.37,0.27-0.73,0.55-1.1,0.85c0-0.09,0-0.19,0-0.28c-9.9,5.24-18.91,12.68-25.4,17.76c-40.43,30.16-79.9,22.78-99.8,12.84
	c-37.22-18.29-43.96-46.53-43-74.45c-0.64-67.39-37.22-73.49-55.52-83.11C-16.77,46.87,7.94,0.49,7.94,0.49l524.21,0.02
	C532.14,0.51,556.85,47.04,513.21,71.75z"/>
</svg>
