<svg xmlns="http://www.w3.org/2000/svg" xmlns:xlink="http://www.w3.org/1999/xlink" width="375" height="123" viewBox="0 0 375 123">
  <defs>
    <linearGradient id="linear-gradient" x1="-0.036" y1="1" x2="1.112" y2="-0.414" gradientUnits="objectBoundingBox">
      <stop offset="0" stop-color="#2b86c5"/>
      <stop offset="0.569" stop-color="#784ba0"/>
      <stop offset="1" stop-color="#ff3cac"/>
    </linearGradient>
    <filter id="Subtraction_3" x="0" y="0" width="375" height="123" filterUnits="userSpaceOnUse">
      <feOffset dy="3" input="SourceAlpha"/>
      <feGaussianBlur stdDeviation="5" result="blur"/>
      <feFlood flood-color="#656565" flood-opacity="0.451"/>
      <feComposite operator="in" in2="blur"/>
      <feComposite in="SourceGraphic"/>
    </filter>
  </defs>
  <g transform="matrix(1, 0, 0, 1, 0, 0)" filter="url(#Subtraction_3)">
    <path id="Subtraction_3-2" data-name="Subtraction 3" d="M-2788-1033h-335a5.005,5.005,0,0,1-5-5v-29.01c.16.006.328.01.5.01a12.514,12.514,0,0,0,12.5-12.5,12.514,12.514,0,0,0-12.5-12.5c-.164,0-.332,0-.5.01V-1121a5.005,5.005,0,0,1,5-5h335a5.006,5.006,0,0,1,5,5v83A5.006,5.006,0,0,1-2788-1033Z" transform="translate(3143 1138)" fill="url(#linear-gradient)"/>
  </g>
</svg>
