<?xml version="1.0" encoding="utf-8"?>
<!-- Generator: Adobe Illustrator 23.0.3, SVG Export Plug-In . SVG Version: 6.00 Build 0)  -->
<svg version="1.1" id="Capa_1" xmlns="http://www.w3.org/2000/svg" xmlns:xlink="http://www.w3.org/1999/xlink" x="0px" y="0px"
	 viewBox="0 0 261.3 402" style="enable-background:new 0 0 261.3 402;" xml:space="preserve">
<style type="text/css">
	.st0{fill:#333333;}
</style>
<g>
	<path class="st0" d="M258.6,91.1c-1.7-1.7-3.9-2.6-6.6-2.6h-48.8C200,72.7,193.9,59,185,47.4h66.5c2.7,0,4.9-0.9,6.6-2.6
		c1.7-1.7,2.6-3.9,2.6-6.6V9.1c0-2.7-0.9-4.9-2.6-6.6s-3.9-2.6-6.6-2.6H13.9c-2.7,0-4.9,0.9-6.6,2.6S4.7,6.4,4.7,9.1v38
		c0,2.5,0.9,4.6,2.7,6.4s3.9,2.7,6.4,2.7h41.4c40.2,0,65.7,10.8,76.5,32.3H13.9c-2.7,0-4.9,0.9-6.6,2.6S4.7,95,4.7,97.7v29.1
		c0,2.7,0.9,4.9,2.6,6.6s3.9,2.6,6.6,2.6h121.9c-4.2,15.6-13.9,27.5-29.3,35.7C91.2,179.9,71,184,45.8,184h-32
		c-2.5,0-4.6,0.9-6.4,2.7s-2.7,4-2.7,6.4v36.3c0,2.5,0.9,4.6,2.6,6.3c36.5,38.8,83.9,93.2,142.2,163c1.7,2.3,4.1,3.4,7.1,3.4h55.7
		c4,0,6.8-1.7,8.3-5.1c1.9-3.4,1.5-6.7-1.1-9.7c-55.6-68.1-99.3-119.2-131-153c32.4-3.8,58.6-14.3,78.8-31.4s32.4-39.4,36.8-66.8h48
		c2.7,0,4.9-0.9,6.6-2.6c1.7-1.7,2.6-3.9,2.6-6.6V97.6C261.2,95,260.3,92.8,258.6,91.1z"/>
</g>
</svg>
