<svg xmlns="http://www.w3.org/2000/svg" width="13.538" height="14.184" viewBox="0 0 13.538 14.184"><defs><style>.a{fill:#262626;}</style></defs><path class="a" d="M6.217,0A6.392,6.392,0,0,0,0,6.54a6.392,6.392,0,0,0,6.217,6.54,6.392,6.392,0,0,0,6.217-6.54A6.392,6.392,0,0,0,6.217,0Zm0,11.872A5.212,5.212,0,0,1,1.148,6.54,5.212,5.212,0,0,1,6.217,1.207,5.212,5.212,0,0,1,11.286,6.54,5.212,5.212,0,0,1,6.217,11.872Z"/><g transform="translate(10.627 11.272)"><path class="a" d="M353.847,353.315l-2.159-2.159a.376.376,0,0,0-.532.532l2.159,2.159a.376.376,0,0,0,.532-.532Z" transform="translate(-351.046 -351.046)"/></g></svg>