<?xml version="1.0" encoding="iso-8859-1"?>
<!-- Generator: Adobe Illustrator 21.0.0, SVG Export Plug-In . SVG Version: 6.00 Build 0)  -->
<svg version="1.1" id="Capa_1" xmlns="http://www.w3.org/2000/svg" xmlns:xlink="http://www.w3.org/1999/xlink" x="0px" y="0px"
	 viewBox="0 0 512 512" style="enable-background:new 0 0 512 512;" xml:space="preserve">
<rect x="198.54" style="fill:#B38A65;" width="114.92" height="101.68"/>
<rect x="256" style="fill:#A17852;" width="57.46" height="101.68"/>
<path style="fill:#FFAA20;" d="M372.6,169.93V512H139.4V169.93c0-45.9,37.34-83.25,83.24-83.25h66.72
	C335.26,86.68,372.6,124.03,372.6,169.93z"/>
<path style="fill:#FF8900;" d="M372.6,169.93V512H256V86.68h33.36C335.26,86.68,372.6,124.03,372.6,169.93z"/>
<rect x="139.4" y="419.32" style="fill:#FF4F19;" width="233.2" height="30"/>
<path style="fill:#FFEC97;" d="M312.83,272.83c0,31.34-25.49,56.83-56.83,56.83s-56.83-25.49-56.83-56.83S224.66,216,256,216
	S312.83,241.49,312.83,272.83z"/>
<path style="fill:#FFDF48;" d="M256,329.66V216c31.34,0,56.83,25.49,56.83,56.83C312.83,304.17,287.34,329.66,256,329.66z"/>
<rect x="256" y="419.32" style="fill:#DD2B19;" width="116.6" height="30"/>
<g>
</g>
<g>
</g>
<g>
</g>
<g>
</g>
<g>
</g>
<g>
</g>
<g>
</g>
<g>
</g>
<g>
</g>
<g>
</g>
<g>
</g>
<g>
</g>
<g>
</g>
<g>
</g>
<g>
</g>
</svg>
