<?xml version="1.0" encoding="iso-8859-1"?>
<!-- Generator: Adobe Illustrator 21.0.0, SVG Export Plug-In . SVG Version: 6.00 Build 0)  -->
<svg version="1.1" id="Capa_1" xmlns="http://www.w3.org/2000/svg" xmlns:xlink="http://www.w3.org/1999/xlink" x="0px" y="0px"
	 viewBox="0 0 512 512" style="enable-background:new 0 0 512 512;" xml:space="preserve">
<g>
	<polygon style="fill:#F0E7DF;" points="195.792,0 195.792,15 195.792,15 195.792,15 195.792,30 202.251,30 375.792,433 
		375.792,433 375.792,448 511.21,448 511.21,0 	"/>
	<path style="fill:#F0E7DF;" d="M390.79,101.58v308.84c0,29.21-21.74,55.75-61.22,74.74C293.59,502.47,246.08,512,195.79,512
		c-0.75,0-1.5,0-2.25-0.01c-49.45-0.28-96.08-9.78-131.53-26.83c-39.48-18.99-61.22-45.53-61.22-74.74V101.58H390.79z"/>
</g>
<g>
	<rect x="144.21" y="204.17" style="fill:#C8AD92;" width="30" height="37.23"/>
	<rect x="144.21" y="268.07" style="fill:#C8AD92;" width="30" height="37.23"/>
	<rect x="144.21" y="331.97" style="fill:#C8AD92;" width="30" height="37.23"/>
	<rect x="144.21" y="395.87" style="fill:#C8AD92;" width="30" height="37.23"/>
	<rect x="144.21" y="459.77" style="fill:#C8AD92;" width="30" height="37.23"/>
</g>
<g>
	<path style="fill:#DFCDBD;" d="M390.79,101.58v308.84c0,29.21-21.74,55.75-61.22,74.74C293.59,502.47,246.08,512,195.79,512
		c-0.75,0-1.5,0-2.25-0.01V101.58H390.79z"/>
	<path style="fill:#DFCDBD;" d="M390.79,101.58c0,29.21-21.74,55.75-61.22,74.74c-35.98,17.31-83.49,26.84-133.78,26.84
		c-0.75,0-1.5,0-2.25-0.01c-49.45-0.28-96.08-9.78-131.53-26.83c-39.48-18.99-61.22-45.53-61.22-74.74s21.74-55.75,61.22-74.74
		C97.46,9.79,144.09,0.29,193.54,0.01C194.29,0,195.04,0,195.79,0c50.29,0,97.8,9.53,133.78,26.84
		C369.05,45.83,390.79,72.37,390.79,101.58z"/>
</g>
<g>
	<path style="fill:#C8AD92;" d="M390.79,101.58c0,29.21-21.74,55.75-61.22,74.74c-35.98,17.31-83.49,26.84-133.78,26.84
		c-0.75,0-1.5,0-2.25-0.01V0.01C194.29,0,195.04,0,195.79,0c50.29,0,97.8,9.53,133.78,26.84
		C369.05,45.83,390.79,72.37,390.79,101.58z"/>
	<path style="fill:#C8AD92;" d="M270.8,99.22c0,7.71-3.58,22.12-27.54,31.95c-13.52,5.55-31.18,8.61-49.72,8.61
		s-36.19-3.06-49.72-8.61c-23.96-9.83-27.54-24.24-27.54-31.95s3.58-22.11,27.54-31.94c13.53-5.56,31.18-8.61,49.72-8.61
		s36.2,3.05,49.72,8.61C267.22,77.11,270.8,91.51,270.8,99.22z"/>
</g>
<path style="fill:#BD9B7B;" d="M270.8,99.22c0,7.71-3.58,22.12-27.54,31.95c-13.52,5.55-31.18,8.61-49.72,8.61V58.67
	c18.54,0,36.2,3.05,49.72,8.61C267.22,77.11,270.8,91.51,270.8,99.22z"/>
<g>
</g>
<g>
</g>
<g>
</g>
<g>
</g>
<g>
</g>
<g>
</g>
<g>
</g>
<g>
</g>
<g>
</g>
<g>
</g>
<g>
</g>
<g>
</g>
<g>
</g>
<g>
</g>
<g>
</g>
</svg>
