<?xml version="1.0" encoding="iso-8859-1"?>
<!-- Generator: Adobe Illustrator 21.0.0, SVG Export Plug-In . SVG Version: 6.00 Build 0)  -->
<svg version="1.1" id="Capa_1" xmlns="http://www.w3.org/2000/svg" xmlns:xlink="http://www.w3.org/1999/xlink" x="0px" y="0px"
	 viewBox="0 0 512 512" style="enable-background:new 0 0 512 512;" xml:space="preserve">
<rect x="383.27" style="fill:#B38A65;" width="119.27" height="512"/>
<rect x="442.9" style="fill:#A17852;" width="59.64" height="512"/>
<g>
	<rect x="9.46" style="fill:#C8AD92;" width="373.81" height="512"/>
	<polygon style="fill:#C8AD92;" points="502.54,512 383.27,512 442.9,461.48 	"/>
</g>
<rect x="196" style="fill:#BD9B7B;" width="187.27" height="512"/>
<path style="fill:#F0E7DF;" d="M299.34,65.42v43.65c0,56.98-46.36,103.35-103.34,103.35c-56.99,0-103.35-46.37-103.35-103.35V65.42
	h30v43.65c0,40.44,32.9,73.35,73.35,73.35c40.44,0,73.34-32.91,73.34-73.35V65.42H299.34z"/>
<path style="fill:#DFCDBD;" d="M299.34,65.42v43.65c0,56.98-46.36,103.35-103.34,103.35v-30c40.44,0,73.34-32.91,73.34-73.35V65.42
	H299.34z"/>
<polygon style="fill:#BD9B7B;" points="502.54,512 442.9,512 442.9,461.48 "/>
<g>
</g>
<g>
</g>
<g>
</g>
<g>
</g>
<g>
</g>
<g>
</g>
<g>
</g>
<g>
</g>
<g>
</g>
<g>
</g>
<g>
</g>
<g>
</g>
<g>
</g>
<g>
</g>
<g>
</g>
</svg>
