<?xml version="1.0" encoding="iso-8859-1"?>
<!-- Generator: Adobe Illustrator 21.0.0, SVG Export Plug-In . SVG Version: 6.00 Build 0)  -->
<svg version="1.1" id="Capa_1" xmlns="http://www.w3.org/2000/svg" xmlns:xlink="http://www.w3.org/1999/xlink" x="0px" y="0px"
	 viewBox="0 0 512 512" style="enable-background:new 0 0 512 512;" xml:space="preserve">
<path style="fill:#FFDB2D;" d="M448.347,310.302c0,39.105-10.011,76.161-28.934,107.175c-17.202,28.204-41.146,49.577-68.02,60.899
	C343.853,498.529,326.66,512,307.387,512c-0.7,0-1.39-0.02-2.08-0.06c-17.923-0.87-33.575-13.082-41.176-31.614
	c-28.074-10.441-53.207-31.634-71.4-60.388c-19.923-31.494-30.454-69.41-30.454-109.635c0-78.621,41.086-146.991,100.884-169.654
	c7.151-19.773,23.433-33.195,42.146-34.125c0.69-0.03,1.38-0.05,2.08-0.05c20.423,0,37.955,14.482,44.906,36.135
	c26.584,11.462,50.257,32.775,67.279,60.779C438.396,234.351,448.347,271.327,448.347,310.302z"/>
<path style="fill:#B38A65;" d="M269.452,58.716l-5.599-13.918l0,0l0,0l-5.599-13.918c-34.875,14.029-50.585,37.882-57.622,55.421
	c-7.543,18.796-6.942,34.289-6.849,35.994l29.959-1.639l0.006,0.114C223.68,119.015,222.613,77.559,269.452,58.716z"/>
<path style="fill:#FFDB2D;" d="M349.723,310.302c0,39.105-10.011,76.161-28.934,107.175c-17.212,28.204-41.156,49.577-68.02,60.899
	C245.229,498.529,228.036,512,208.764,512c-0.45,0-0.89-0.01-1.33-0.03c-18.233-0.56-34.225-12.862-41.926-31.644
	c-28.074-10.441-53.207-31.634-71.4-60.388c-19.923-31.494-30.454-69.41-30.454-109.635c0-78.621,41.086-146.991,100.884-169.654
	c7.241-20.043,23.863-33.555,42.896-34.155c0.44-0.01,0.89-0.02,1.33-0.02c20.423,0,37.955,14.482,44.906,36.135
	c26.584,11.462,50.257,32.775,67.279,60.779C339.772,234.351,349.723,271.327,349.723,310.302z"/>
<path style="fill:#FFEC97;" d="M152.626,428.26c-45.058-29.462-46.843-76.375-46.898-78.358l29.993-0.816l-0.003-0.107
	c0.057,1.359,1.76,33.528,33.328,54.169L152.626,428.26z"/>
<path style="fill:#2DD729;" d="M234.927,63.557l-0.31,2.31l-1.02,2.09c-0.58,1.15-14.322,28.394-44.076,31.044
	c-1.52,0.14-3.06,0.21-4.601,0.21c-27.224,0-56.678-21.233-87.632-63.199L85.976,20.681l17.933-6.441
	c51.847-18.643,89.423-18.983,111.686-1.01C238.838,31.994,235.097,62.277,234.927,63.557z"/>
<path style="fill:#FEC000;" d="M349.723,310.302c0,39.105-10.011,76.161-28.934,107.175c-17.212,28.204-41.156,49.577-68.02,60.899
	C245.229,498.529,228.036,512,208.764,512c-0.45,0-0.89-0.01-1.33-0.03V106.493c0.44-0.01,0.89-0.02,1.33-0.02
	c20.423,0,37.955,14.482,44.906,36.135c26.584,11.462,50.257,32.775,67.279,60.779C339.772,234.351,349.723,271.327,349.723,310.302
	z"/>
<path style="fill:#00AD00;" d="M233.597,67.958c-0.58,1.15-14.322,28.394-44.076,31.044c-1.52,0.14-3.06,0.21-4.601,0.21
	c-27.224,0-56.678-21.233-87.632-63.199L85.976,20.681L233.597,67.958z"/>
<g>
</g>
<g>
</g>
<g>
</g>
<g>
</g>
<g>
</g>
<g>
</g>
<g>
</g>
<g>
</g>
<g>
</g>
<g>
</g>
<g>
</g>
<g>
</g>
<g>
</g>
<g>
</g>
<g>
</g>
</svg>
