<?xml version="1.0" encoding="iso-8859-1"?>
<!-- Generator: Adobe Illustrator 21.0.0, SVG Export Plug-In . SVG Version: 6.00 Build 0)  -->
<svg version="1.1" id="Capa_1" xmlns="http://www.w3.org/2000/svg" xmlns:xlink="http://www.w3.org/1999/xlink" x="0px" y="0px"
	 viewBox="0 0 512 512" style="enable-background:new 0 0 512 512;" xml:space="preserve">
<path style="fill:#FFAA20;" d="M503.15,171.54c0,24.62-15.81,47.99-44.74,66.49V512H114.69V238.03
	c-28.92-18.5-44.73-41.88-44.73-66.49c0-30.88,24.08-58.92,67.8-78.96c39.99-18.32,92.83-28.42,148.79-28.42s108.8,10.1,148.8,28.42
	C479.07,112.62,503.15,140.66,503.15,171.54z"/>
<path style="fill:#FF8900;" d="M503.15,171.54c0,24.62-15.81,47.99-44.74,66.49V512H286.55V64.16c55.96,0,108.8,10.1,148.8,28.42
	C479.07,112.62,503.15,140.66,503.15,171.54z"/>
<path style="fill:#FFEC97;" d="M442.04,107.37c0,24.62-15.81,48-44.73,66.5v273.97H53.59V173.87c-28.93-18.5-44.74-41.88-44.74-66.5
	c0-30.88,24.08-58.92,67.8-78.95C116.65,10.09,169.49,0,225.45,0s108.8,10.09,148.79,28.42C417.96,48.45,442.04,76.49,442.04,107.37
	z"/>
<path style="fill:#FFDF48;" d="M442.04,107.37c0,24.62-15.81,48-44.73,66.5v273.97H225.45V0c55.96,0,108.8,10.09,148.79,28.42
	C417.96,48.45,442.04,76.49,442.04,107.37z"/>
<rect x="128" y="347.33" style="fill:#FFAA20;" width="30" height="30"/>
<g>
	<rect x="226" y="296.33" style="fill:#FF8900;" width="30" height="30"/>
	<rect x="296.45" y="356.8" style="fill:#FF8900;" width="30" height="30"/>
	<rect x="296.45" y="237" style="fill:#FF8900;" width="30" height="30"/>
</g>
<rect x="153.22" y="246.67" style="fill:#FFAA20;" width="30" height="30"/>
<rect x="230.33" y="166.92" style="fill:#FF8900;" width="30" height="30"/>
<rect x="94.33" y="151.92" style="fill:#FFAA20;" width="30" height="30"/>
<g>
	<rect x="311.45" y="99.25" style="fill:#FF8900;" width="30" height="30"/>
	<rect x="226" y="44.831" style="fill:#FF8900;" width="30" height="30"/>
</g>
<rect x="133.89" y="79.16" style="fill:#FFAA20;" width="30" height="30"/>
<g>
</g>
<g>
</g>
<g>
</g>
<g>
</g>
<g>
</g>
<g>
</g>
<g>
</g>
<g>
</g>
<g>
</g>
<g>
</g>
<g>
</g>
<g>
</g>
<g>
</g>
<g>
</g>
<g>
</g>
</svg>
