<?xml version="1.0" encoding="iso-8859-1"?>
<!-- Generator: Adobe Illustrator 21.0.0, SVG Export Plug-In . SVG Version: 6.00 Build 0)  -->
<svg version="1.1" id="Capa_1" xmlns="http://www.w3.org/2000/svg" xmlns:xlink="http://www.w3.org/1999/xlink" x="0px" y="0px"
	 viewBox="0 0 512 512" style="enable-background:new 0 0 512 512;" xml:space="preserve">
<path style="fill:#FFAA20;" d="M508.331,285.265c-8.789,22.778-31.248,37.507-57.236,37.507H60.905
	c-25.988,0-48.446-14.729-57.236-37.507c-8.179-21.218-2.46-44.187,14.939-59.946c28.668-25.978,69.735-55.036,123.411-73.445
	c11.619-3.99,23.828-7.469,36.637-10.319c12.389-2.76,25.338-4.92,38.847-6.34c10.729-1.15,21.808-1.83,33.238-1.99
	c1.74-0.03,3.5-0.04,5.26-0.04c10.449,0,20.608,0.44,30.488,1.26c10.599,0.88,20.868,2.21,30.808,3.94
	c11.499,1.99,22.558,4.5,33.178,7.449c9.919,2.75,19.459,5.87,28.608,9.309c49.236,18.449,87.284,45.687,114.312,70.175
	C510.791,241.078,516.511,264.046,508.331,285.265z"/>
<path style="fill:#FF8900;" d="M451.096,322.772H256V133.186c10.449,0,20.608,0.44,30.488,1.26c10.599,0.88,20.868,2.21,30.808,3.94
	c11.499,1.99,22.558,4.5,33.178,7.449c9.919,2.75,19.459,5.87,28.608,9.309c49.236,18.449,87.284,45.687,114.312,70.175
	c17.399,15.759,23.118,38.727,14.939,59.946C499.542,308.043,477.084,322.772,451.096,322.772z"/>
<g>
	<path style="fill:#FFEC97;" d="M178.656,141.556l-29.878,72.915l-27.758-11.379l20.998-51.216
		C153.638,147.885,165.847,144.405,178.656,141.556z"/>
	<path style="fill:#FFEC97;" d="M250.74,133.226l-33.298,81.244l-27.758-11.379l27.818-67.875
		C228.232,134.066,239.311,133.386,250.74,133.226z"/>
</g>
<g>
	<path style="fill:#FFDF48;" d="M317.295,138.386l-31.198,76.084l-27.758-11.379l28.148-68.645
		C297.087,135.326,307.356,136.656,317.295,138.386z"/>
	<path style="fill:#FFDF48;" d="M379.081,155.145l-24.318,59.326l-27.758-11.379l23.468-57.256
		C360.392,148.585,369.932,151.705,379.081,155.145z"/>
</g>
<rect x="0.019" y="348.816" style="fill:#B38A65;" width="511.962" height="29.998"/>
<rect x="256.001" y="348.816" style="fill:#A17852;" width="255.981" height="29.998"/>
<g>
</g>
<g>
</g>
<g>
</g>
<g>
</g>
<g>
</g>
<g>
</g>
<g>
</g>
<g>
</g>
<g>
</g>
<g>
</g>
<g>
</g>
<g>
</g>
<g>
</g>
<g>
</g>
<g>
</g>
</svg>
