<?xml version="1.0" encoding="iso-8859-1"?>
<!-- Generator: Adobe Illustrator 21.0.0, SVG Export Plug-In . SVG Version: 6.00 Build 0)  -->
<svg version="1.1" id="Capa_1" xmlns="http://www.w3.org/2000/svg" xmlns:xlink="http://www.w3.org/1999/xlink" x="0px" y="0px"
	 viewBox="0 0 512 512" style="enable-background:new 0 0 512 512;" xml:space="preserve">
<path style="fill:#FF4F19;" d="M489.294,285.597C503.168,297.289,512,314.784,512,334.299v28.247h-74.239
	c-34.529,0-62.716-27.627-63.656-61.946h-0.05v-30.008h0.05c0.94-34.309,29.127-61.936,63.656-61.936H512v28.237
	C512,256.41,503.168,273.905,489.294,285.597z"/>
<path style="fill:#DD2B19;" d="M512,334.3v28.247h-74.239c-34.529,0-62.716-27.627-63.656-61.946h-0.05v-15.004h115.239
	C503.168,297.29,512,314.784,512,334.3z"/>
<path style="fill:#FF4F19;" d="M290.944,113.475l-15.619,0.642c-103.388,4.244-161.751,80.589-164.185,83.837l23.993,18.023
	c0.06-0.079,2.929-3.831,8.383-9.563l132.425-3.498l0,0h15.004v-89.441H290.944z"/>
<path style="fill:#FFAA20;" d="M409.644,285.597l-9.642,10.263c-64.016,68.177-130.843,102.666-198.8,102.666
	c-3.881,0-7.752-0.11-11.643-0.34c-20.225-1.16-40.57-5.521-60.575-12.893c-25.006-9.202-49.503-23.106-72.638-41.361
	c-31.168-24.606-48.972-48.392-49.713-49.393L0,285.597l6.632-8.942c2.001-2.701,48.252-64.126,123.701-91.323
	c2.961-1.07,5.962-2.081,9.012-3.041c20.625-6.472,41.301-9.702,61.946-9.702c40.89,0,81.681,12.673,121.871,37.95
	c25.927,16.304,51.773,38.1,76.84,64.786L409.644,285.597z"/>
<path style="fill:#FF8900;" d="M409.644,285.597l-9.642,10.263c-64.016,68.177-130.843,102.666-198.8,102.666
	c-3.881,0-7.752-0.11-11.643-0.34c-20.225-1.16-40.57-5.521-60.575-12.893c-25.006-9.202-49.503-23.106-72.638-41.361
	c-31.168-24.606-48.972-48.392-49.713-49.393L0,285.597H409.644z"/>
<path style="fill:#FFEC97;" d="M153.149,285.597c-0.1,29.968-6.332,63.996-24.166,99.695c-25.006-9.202-49.503-23.106-72.638-41.361
	c-31.168-24.606-48.972-48.392-49.713-49.393L0,285.597l6.632-8.942c2.001-2.701,48.252-64.126,123.701-91.323
	C139.255,203.706,153.319,239.946,153.149,285.597z"/>
<rect x="67.717" y="240.431" style="fill:#FF4F19;" width="28.392" height="28.392"/>
<path style="fill:#FFDF48;" d="M0,285.597h153.149c-0.1,29.968-6.332,63.996-24.166,99.695
	c-25.006-9.202-49.503-23.106-72.638-41.361c-31.168-24.606-48.972-48.392-49.713-49.393L0,285.597z"/>
<g>
</g>
<g>
</g>
<g>
</g>
<g>
</g>
<g>
</g>
<g>
</g>
<g>
</g>
<g>
</g>
<g>
</g>
<g>
</g>
<g>
</g>
<g>
</g>
<g>
</g>
<g>
</g>
<g>
</g>
</svg>
