<?xml version="1.0" encoding="iso-8859-1"?>
<!-- Generator: Adobe Illustrator 21.0.0, SVG Export Plug-In . SVG Version: 6.00 Build 0)  -->
<svg version="1.1" id="Capa_1" xmlns="http://www.w3.org/2000/svg" xmlns:xlink="http://www.w3.org/1999/xlink" x="0px" y="0px"
	 viewBox="0 0 512 512" style="enable-background:new 0 0 512 512;" xml:space="preserve">
<polygon style="fill:#CAE8F9;" points="435.263,144.845 329.324,144.845 329.324,365.464 512,365.464 512,234.992 "/>
<rect x="329.32" y="234.997" style="fill:#DFCDBD;" width="182.68" height="130.47"/>
<rect y="98.608" style="fill:#00A5FF;" width="359.32" height="266.86"/>
<path style="fill:#B38A65;" d="M95.305,306.221c-29.548,0-53.586,24.038-53.586,53.586c0,29.547,24.038,53.585,53.586,53.585
	s53.586-24.038,53.586-53.585C148.891,330.259,124.853,306.221,95.305,306.221z"/>
<path style="fill:#A17852;" d="M427.041,306.221c-29.548,0-53.586,24.038-53.586,53.586c0,29.547,24.038,53.585,53.586,53.585
	c29.547,0,53.585-24.038,53.585-53.585C480.626,330.259,456.588,306.221,427.041,306.221z"/>
<g>
	<rect x="39.605" y="134.658" style="fill:#CAE8F9;" width="71.71" height="30"/>
	<rect x="39.605" y="186.408" style="fill:#CAE8F9;" width="71.71" height="30"/>
	<rect x="39.605" y="238.158" style="fill:#CAE8F9;" width="71.71" height="30"/>
</g>
<rect x="256" y="98.608" style="fill:#0088FF;" width="103.32" height="266.86"/>
<g>
</g>
<g>
</g>
<g>
</g>
<g>
</g>
<g>
</g>
<g>
</g>
<g>
</g>
<g>
</g>
<g>
</g>
<g>
</g>
<g>
</g>
<g>
</g>
<g>
</g>
<g>
</g>
<g>
</g>
</svg>
