<?xml version="1.0" encoding="iso-8859-1"?>
<!-- Generator: Adobe Illustrator 21.0.0, SVG Export Plug-In . SVG Version: 6.00 Build 0)  -->
<svg version="1.1" id="Capa_1" xmlns="http://www.w3.org/2000/svg" xmlns:xlink="http://www.w3.org/1999/xlink" x="0px" y="0px"
	 viewBox="0 0 512 512" style="enable-background:new 0 0 512 512;" xml:space="preserve">
<polygon style="fill:#FF4F19;" points="90.375,151.352 90.355,151.372 90.355,151.352 "/>
<rect x="109.69" y="151.37" style="fill:#FFEC97;" width="292.61" height="360.63"/>
<rect x="255.9" y="151.37" style="fill:#FFDF48;" width="146.41" height="360.63"/>
<rect x="154.02" y="186" style="fill:#00A5FF;" width="203.96" height="246.22"/>
<rect x="255.9" y="186" style="fill:#0088FF;" width="102.08" height="246.22"/>
<rect x="242" y="455.49" style="fill:#00A5FF;" width="29.5" height="29.5"/>
<rect x="255.9" y="455.49" style="fill:#0088FF;" width="15.6" height="29.5"/>
<path style="fill:#FF4F19;" d="M421.645,151.352L381.807,0H130.212L90.375,151.352h-0.02v21.761v33.451
	c0,30.501,24.721,55.222,55.222,55.222c15.245,0,29.051-6.178,39.042-16.169c9.992-10.001,16.169-23.807,16.169-39.052v-33.451
	h220.856v-21.762H421.645z"/>
<path style="fill:#DD2B19;" d="M381.807,0H255.901v173.113h55.311v33.451c0,30.501,24.72,55.222,55.221,55.222
	c15.246,0,29.051-6.178,39.043-16.169c9.991-10.001,16.169-23.807,16.169-39.052v-33.451v-21.761L381.807,0z"/>
<path style="fill:#F0E7DF;" d="M292.758,0h-73.516l-18.454,151.352v55.211c0,30.471,24.661,55.162,55.112,55.222h0.1
	c30.491,0,55.212-24.721,55.212-55.222v-55.211L292.758,0z"/>
<path style="fill:#DFCDBD;" d="M311.212,151.352v55.212c0,30.501-24.721,55.221-55.212,55.221h-0.099V0h36.857L311.212,151.352z"/>
<g>
</g>
<g>
</g>
<g>
</g>
<g>
</g>
<g>
</g>
<g>
</g>
<g>
</g>
<g>
</g>
<g>
</g>
<g>
</g>
<g>
</g>
<g>
</g>
<g>
</g>
<g>
</g>
<g>
</g>
</svg>
