<?xml version="1.0" encoding="iso-8859-1"?>
<!-- Generator: Adobe Illustrator 21.0.0, SVG Export Plug-In . SVG Version: 6.00 Build 0)  -->
<svg version="1.1" id="Capa_1" xmlns="http://www.w3.org/2000/svg" xmlns:xlink="http://www.w3.org/1999/xlink" x="0px" y="0px"
	 viewBox="0 0 512 512" style="enable-background:new 0 0 512 512;" xml:space="preserve">
<polygon style="fill:#F0E7DF;" points="386.339,0 386.339,512 332.982,484.987 294.606,504.405 258.728,486.246 256.24,484.987 
	217.894,504.395 179.258,484.957 125.661,511.93 125.661,0.07 179.258,27.043 217.894,7.605 256.24,27.013 258.728,25.754 
	294.606,7.595 332.982,27.013 "/>
<polygon style="fill:#DFCDBD;" points="386.339,0 386.339,512 332.982,484.987 294.606,504.405 258.728,486.246 258.728,25.754 
	294.606,7.595 332.982,27.013 "/>
<path style="fill:#009100;" d="M346.214,323.309c-1.569-3.54-3.794-6.549-6.676-9.028c-2.883-2.477-6.399-4.552-10.545-6.221
	c-4.148-1.669-8.801-3.21-13.959-4.628c-3.744-1.01-7.032-1.921-9.863-2.73c-2.833-0.81-5.186-1.693-7.056-2.655
	c-1.873-0.96-3.288-2.049-4.248-3.263c-0.962-1.214-1.441-2.73-1.441-4.552c0-5.967,4.45-8.952,13.353-8.952
	c3.236,0,6.472,0.456,9.711,1.365c3.236,0.91,6.221,1.974,8.952,3.187c2.731,1.214,5.007,2.379,6.828,3.49
	c1.821,1.114,2.883,1.873,3.186,2.276l10.925-20.635c-2.427-1.415-5.084-2.83-7.966-4.248c-2.883-1.415-5.993-2.679-9.331-3.794
	c-2.262-0.754-4.599-1.406-7-1.975v-20.401h-29.981v20.921c-4.728,1.517-8.89,3.746-12.484,6.69
	c-3.642,2.984-6.525,6.652-8.649,11.001c-2.125,4.349-3.187,9.357-3.187,15.021c0,4.047,0.582,7.587,1.745,10.621
	c1.162,3.035,2.933,5.716,5.311,8.042c2.376,2.329,5.387,4.377,9.028,6.145c3.642,1.771,7.94,3.414,12.897,4.932
	c3.742,1.113,7.207,2.124,10.393,3.034c3.187,0.91,5.941,1.897,8.269,2.959c2.327,1.062,4.146,2.253,5.463,3.565
	c1.314,1.316,1.973,2.985,1.973,5.008c0,5.363-4.4,8.042-13.201,8.042c-4.149,0-8.246-0.555-12.29-1.669
	c-4.046-1.112-7.714-2.376-11-3.794c-3.288-1.415-6.045-2.831-8.27-4.248c-2.226-1.415-3.542-2.376-3.945-2.883l-10.925,21.697
	c3.134,2.125,6.548,3.997,10.242,5.615c3.691,1.619,7.51,3.011,11.456,4.172c2.354,0.695,4.747,1.277,7.174,1.773v22.315h29.981
	V367.68c0.716-0.145,1.435-0.276,2.145-0.446c4.855-1.161,9.154-3.035,12.897-5.615c3.742-2.579,6.752-5.967,9.028-10.166
	c2.277-4.196,3.415-9.332,3.415-15.401C348.565,331.099,347.781,326.851,346.214,323.309z"/>
<rect x="209.339" y="70.246" style="fill:#00AD00;" width="93.322" height="29.981"/>
<g>
	<rect x="171.243" y="219.353" style="fill:#C8AD92;" width="54.915" height="29.981"/>
	<rect x="171.243" y="280.205" style="fill:#C8AD92;" width="54.915" height="29.981"/>
	<rect x="171.243" y="341.057" style="fill:#C8AD92;" width="54.915" height="29.981"/>
	<rect x="171.243" y="401.909" style="fill:#C8AD92;" width="54.915" height="29.981"/>
</g>
<rect x="125.661" y="144.799" style="fill:#B38A65;" width="260.677" height="29.981"/>
<rect x="258.728" y="70.246" style="fill:#009100;" width="43.933" height="29.981"/>
<rect x="258.728" y="144.799" style="fill:#A17852;" width="127.61" height="29.981"/>
<g>
</g>
<g>
</g>
<g>
</g>
<g>
</g>
<g>
</g>
<g>
</g>
<g>
</g>
<g>
</g>
<g>
</g>
<g>
</g>
<g>
</g>
<g>
</g>
<g>
</g>
<g>
</g>
<g>
</g>
</svg>
