<?xml version="1.0" encoding="iso-8859-1"?>
<!-- Generator: Adobe Illustrator 21.0.0, SVG Export Plug-In . SVG Version: 6.00 Build 0)  -->
<svg version="1.1" id="Capa_1" xmlns="http://www.w3.org/2000/svg" xmlns:xlink="http://www.w3.org/1999/xlink" x="0px" y="0px"
	 viewBox="0 0 512 512" style="enable-background:new 0 0 512 512;" xml:space="preserve">
<rect x="95.348" style="fill:#00AD00;" width="321.304" height="97.09"/>
<rect x="255.91" style="fill:#009100;" width="160.742" height="97.09"/>
<rect x="48.66" y="199.178" style="fill:#FFEC97;" width="414.679" height="312.822"/>
<rect x="255.91" y="199.178" style="fill:#FFDF48;" width="207.43" height="312.822"/>
<polygon style="fill:#F0E7DF;" points="497.018,209.423 497.018,218.175 14.982,218.175 14.982,209.423 19.098,199.178 
	72.154,67.047 439.846,67.047 492.902,199.178 "/>
<g>
	<rect x="156.196" y="354.793" style="fill:#FF4F19;" width="199.609" height="157.207"/>
	<path style="fill:#FF4F19;" d="M111.391,199.178v48.2c0,13.309-5.398,25.367-14.12,34.089c-8.723,8.723-20.77,14.12-34.079,14.12
		c-5.067,0-9.944-0.781-14.531-2.233c-19.528-6.159-33.679-24.415-33.679-45.976v-37.955l4.116-10.245H111.391z"/>
</g>
<path style="fill:#F0E7DF;" d="M111.391,199.178v48.204c0,26.621,21.581,48.203,48.203,48.203l0,0
	c26.621,0,48.203-21.581,48.203-48.203v-48.204H111.391z"/>
<path style="fill:#FF4F19;" d="M304.2,199.178v48.2c0,26.628-21.581,48.21-48.2,48.21h-0.09c-26.578-0.05-48.11-21.611-48.11-48.21
	v-48.2H304.2z"/>
<g>
	<polygon style="fill:#DFCDBD;" points="497.018,209.423 497.018,218.175 255.91,218.175 255.91,67.047 439.846,67.047 
		492.902,199.178 	"/>
	<path style="fill:#DFCDBD;" d="M304.203,199.178v48.204c0,26.621,21.581,48.203,48.203,48.203l0,0
		c26.621,0,48.203-21.581,48.203-48.203v-48.204H304.203z"/>
</g>
<g>
	<path style="fill:#DD2B19;" d="M497.018,209.423v37.955c0,13.309-5.398,25.367-14.12,34.089
		c-5.408,5.408-12.087,9.534-19.558,11.887c-4.587,1.452-9.464,2.233-14.531,2.233c-26.618,0-48.2-21.581-48.2-48.21v-48.2h92.293
		L497.018,209.423z"/>
	<polygon style="fill:#DD2B19;" points="497.018,209.423 497.018,218.175 416.101,218.175 400.609,199.178 365.829,67.047 
		439.846,67.047 492.902,199.178 	"/>
</g>
<g>
	<polygon style="fill:#FF4F19;" points="146.191,67.047 111.411,199.178 111.391,199.198 95.919,218.175 14.982,218.175 
		14.982,209.473 19.118,199.178 72.174,67.047 	"/>
	<polygon style="fill:#FF4F19;" points="304.2,199.178 207.8,199.178 223.914,67.047 288.086,67.047 	"/>
</g>
<path style="fill:#DD2B19;" d="M288.086,67.047H255.91v132.131v96.409H256c26.618,0,48.2-21.581,48.2-48.21v-48.2L288.086,67.047z"
	/>
<rect x="255.91" y="354.793" style="fill:#FF4F19;" width="99.894" height="157.207"/>
<g>
</g>
<g>
</g>
<g>
</g>
<g>
</g>
<g>
</g>
<g>
</g>
<g>
</g>
<g>
</g>
<g>
</g>
<g>
</g>
<g>
</g>
<g>
</g>
<g>
</g>
<g>
</g>
<g>
</g>
</svg>
