<?xml version="1.0" encoding="iso-8859-1"?>
<!-- Generator: Adobe Illustrator 21.0.0, SVG Export Plug-In . SVG Version: 6.00 Build 0)  -->
<svg version="1.1" id="Capa_1" xmlns="http://www.w3.org/2000/svg" xmlns:xlink="http://www.w3.org/1999/xlink" x="0px" y="0px"
	 viewBox="0 0 512 512" style="enable-background:new 0 0 512 512;" xml:space="preserve">
<polygon style="fill:#FF4F19;" points="511.71,226.822 484.573,277.206 500.817,332.731 455.044,368.101 447.292,425.426 
	391.097,439.13 360.699,488.344 303.783,478.001 276.136,496.866 256,510.6 208.217,478.001 151.301,488.344 120.903,439.13 
	64.708,425.426 56.956,368.101 11.183,332.731 27.428,277.206 0,226.282 37.41,182.16 33.069,124.474 85.203,99.397 104.699,44.932 
	162.514,43.222 202.485,1.4 256,23.356 256.24,23.256 309.515,1.4 349.486,43.222 407.301,44.932 426.797,99.397 478.931,124.474 
	474.59,182.16 511.71,225.942 512,226.282 "/>
<polygon style="fill:#DD2B19;" points="511.71,226.822 484.573,277.206 500.817,332.731 455.044,368.101 447.292,425.426 
	391.097,439.13 360.699,488.344 303.783,478.001 276.136,496.866 256.24,496.866 256.24,23.256 309.515,1.4 349.486,43.222 
	407.301,44.932 426.797,99.397 478.931,124.474 474.59,182.16 511.71,225.942 512,226.282 "/>
<path style="fill:#FFEC97;" d="M438.05,255.8c0,100.297-81.532,181.92-181.81,182.05H256c-100.377,0-182.05-81.672-182.05-182.05
	S155.623,73.75,256,73.75h0.24C356.518,73.88,438.05,155.503,438.05,255.8z"/>
<path style="fill:#FFDF48;" d="M438.05,255.8c0,100.297-81.532,181.92-181.81,182.05V73.75
	C356.518,73.88,438.05,155.503,438.05,255.8z"/>
<polygon style="fill:#FF4F19;" points="338.002,181.62 256.24,278.826 196.964,349.296 173.998,329.98 256.24,232.204 
	315.036,162.304 "/>
<g>
	<polygon style="fill:#DD2B19;" points="338.002,181.62 256.24,278.826 256.24,232.204 315.036,162.304 	"/>
	<path style="fill:#DD2B19;" d="M313.179,289.692c-8.918,0-16.174,7.256-16.174,16.174s7.256,16.174,16.174,16.174
		c8.918,0,16.174-7.256,16.174-16.174S322.097,289.692,313.179,289.692z M313.179,352.049c-25.465,0-46.183-20.718-46.183-46.183
		c0-25.465,20.718-46.183,46.183-46.183c25.465,0,46.183,20.718,46.183,46.183C359.361,331.332,338.644,352.049,313.179,352.049z"/>
</g>
<path style="fill:#FF4F19;" d="M198.821,251.916c-25.465,0-46.183-20.718-46.183-46.183c0-25.465,20.718-46.183,46.183-46.183
	s46.183,20.718,46.183,46.183S224.286,251.916,198.821,251.916z M198.821,189.559c-8.919,0-16.174,7.256-16.174,16.174
	c0,8.919,7.256,16.174,16.174,16.174s16.174-7.256,16.174-16.174C214.996,196.815,207.74,189.559,198.821,189.559z"/>
<g>
</g>
<g>
</g>
<g>
</g>
<g>
</g>
<g>
</g>
<g>
</g>
<g>
</g>
<g>
</g>
<g>
</g>
<g>
</g>
<g>
</g>
<g>
</g>
<g>
</g>
<g>
</g>
<g>
</g>
</svg>
