<?xml version="1.0" encoding="iso-8859-1"?>
<!-- Generator: Adobe Illustrator 21.0.0, SVG Export Plug-In . SVG Version: 6.00 Build 0)  -->
<svg version="1.1" id="Capa_1" xmlns="http://www.w3.org/2000/svg" xmlns:xlink="http://www.w3.org/1999/xlink" x="0px" y="0px"
	 viewBox="0 0 512 512" style="enable-background:new 0 0 512 512;" xml:space="preserve">
<polygon style="fill:#FFDB2D;" points="294.95,232.58 294.95,512 66.07,512 66.07,232.58 107.19,142.84 107.19,54 253.83,54 
	253.83,142.84 "/>
<polygon style="fill:#FEC000;" points="294.95,232.58 294.95,512 180.51,512 180.51,54 253.83,54 253.83,142.84 "/>
<rect x="89.34" style="fill:#FFAA20;" width="182.34" height="78"/>
<rect x="66.07" y="250.11" style="fill:#00AD00;" width="228.88" height="139.89"/>
<rect x="180.51" style="fill:#FF8900;" width="91.17" height="78"/>
<rect x="180.51" y="250.11" style="fill:#009100;" width="114.44" height="139.89"/>
<path style="fill:#00AD00;" d="M338.03,267.513v-0.101h-30c0-1.99,0.495-48.97,43.518-69.9l13.124,26.977
	C338.748,237.1,338.047,266.276,338.03,267.513z"/>
<path style="fill:#FFAA20;" d="M445.93,380.33c0,72.6-59.07,131.67-131.67,131.67s-131.67-59.07-131.67-131.67
	s59.07-131.66,131.67-131.66S445.93,307.73,445.93,380.33z"/>
<g>
	<rect x="224.13" y="405.92" style="fill:#FFEC97;" width="29.333" height="29.333"/>
	<rect x="266.22" y="427.25" style="fill:#FFEC97;" width="29.333" height="29.333"/>
</g>
<path style="fill:#FF8900;" d="M445.93,380.33c0,72.6-59.07,131.67-131.67,131.67V248.67C386.86,248.67,445.93,307.73,445.93,380.33
	z"/>
<g>
</g>
<g>
</g>
<g>
</g>
<g>
</g>
<g>
</g>
<g>
</g>
<g>
</g>
<g>
</g>
<g>
</g>
<g>
</g>
<g>
</g>
<g>
</g>
<g>
</g>
<g>
</g>
<g>
</g>
</svg>
