<?xml version="1.0" encoding="iso-8859-1"?>
<!-- Generator: Adobe Illustrator 21.0.0, SVG Export Plug-In . SVG Version: 6.00 Build 0)  -->
<svg version="1.1" id="Capa_1" xmlns="http://www.w3.org/2000/svg" xmlns:xlink="http://www.w3.org/1999/xlink" x="0px" y="0px"
	 viewBox="0 0 512 512" style="enable-background:new 0 0 512 512;" xml:space="preserve">
<rect x="159.72" style="fill:#CAE8F9;" width="192.56" height="90.25"/>
<rect x="256" style="fill:#A3D9F6;" width="96.28" height="90.25"/>
<polygon style="fill:#00A5FF;" points="399.38,163.54 399.38,512 112.62,512 112.62,163.54 117.81,152.16 159.72,60.25 
	352.28,60.25 394.19,152.16 "/>
<polygon style="fill:#0088FF;" points="399.38,163.54 399.38,512 256,512 256,60.25 352.28,60.25 394.19,152.16 "/>
<rect x="112.62" y="246.23" style="fill:#F0E7DF;" width="286.76" height="166.53"/>
<rect x="256" y="246.23" style="fill:#DFCDBD;" width="143.38" height="166.53"/>
<polygon style="fill:#F0E7DF;" points="399.38,163.54 399.38,182.16 112.62,182.16 112.62,163.54 117.81,152.16 394.19,152.16 "/>
<rect x="188.88" y="317.33" style="fill:#B38A65;" width="135.35" height="30"/>
<rect x="256" y="317.33" style="fill:#A17852;" width="68.23" height="30"/>
<polygon style="fill:#DFCDBD;" points="399.38,163.54 399.38,182.16 256,182.16 256,152.16 394.19,152.16 "/>
<g>
</g>
<g>
</g>
<g>
</g>
<g>
</g>
<g>
</g>
<g>
</g>
<g>
</g>
<g>
</g>
<g>
</g>
<g>
</g>
<g>
</g>
<g>
</g>
<g>
</g>
<g>
</g>
<g>
</g>
</svg>
