<?xml version="1.0" encoding="iso-8859-1"?>
<!-- Generator: Adobe Illustrator 21.0.0, SVG Export Plug-In . SVG Version: 6.00 Build 0)  -->
<svg version="1.1" id="Capa_1" xmlns="http://www.w3.org/2000/svg" xmlns:xlink="http://www.w3.org/1999/xlink" x="0px" y="0px"
	 viewBox="0 0 512 512" style="enable-background:new 0 0 512 512;" xml:space="preserve">
<rect x="287.67" y="70" style="fill:#B38A65;" width="89" height="84"/>
<rect x="218.33" style="fill:#00A5FF;" width="232" height="94.44"/>
<rect x="332.17" y="70" style="fill:#A17852;" width="44.5" height="84"/>
<rect x="332.17" style="fill:#0088FF;" width="118.16" height="94.44"/>
<polygon style="fill:#C8AD92;" points="492.59,423.67 22.41,423.67 52.44,125.67 462.56,125.67 "/>
<polygon style="fill:#BD9B7B;" points="492.59,423.67 255.11,423.67 255.11,125.67 462.56,125.67 "/>
<g>
	<rect x="255.33" y="282" style="fill:#A17852;" width="30" height="30"/>
	<rect x="313.83" y="282" style="fill:#A17852;" width="30" height="30"/>
	<rect x="372.33" y="282" style="fill:#A17852;" width="30" height="30"/>
	<rect x="255.33" y="328.67" style="fill:#A17852;" width="30" height="30"/>
	<rect x="313.83" y="328.67" style="fill:#A17852;" width="30" height="30"/>
	<rect x="372.33" y="328.67" style="fill:#A17852;" width="30" height="30"/>
</g>
<rect y="393.67" style="fill:#F0E7DF;" width="512" height="118.33"/>
<rect x="255.11" y="393.67" style="fill:#DFCDBD;" width="256.89" height="118.33"/>
<g>
	<rect x="237.83" y="163.86" style="fill:#F0E7DF;" width="182" height="90.67"/>
	<rect x="96.5" y="163.86" style="fill:#F0E7DF;" width="99" height="139"/>
</g>
<rect x="87" y="272.86" style="fill:#B38A65;" width="118" height="30"/>
<rect x="255.11" y="163.86" style="fill:#DFCDBD;" width="164.72" height="90.67"/>
<g>
</g>
<g>
</g>
<g>
</g>
<g>
</g>
<g>
</g>
<g>
</g>
<g>
</g>
<g>
</g>
<g>
</g>
<g>
</g>
<g>
</g>
<g>
</g>
<g>
</g>
<g>
</g>
<g>
</g>
</svg>
