<?xml version="1.0" encoding="iso-8859-1"?>
<!-- Generator: Adobe Illustrator 21.0.0, SVG Export Plug-In . SVG Version: 6.00 Build 0)  -->
<svg version="1.1" id="Capa_1" xmlns="http://www.w3.org/2000/svg" xmlns:xlink="http://www.w3.org/1999/xlink" x="0px" y="0px"
	 viewBox="0 0 512 512" style="enable-background:new 0 0 512 512;" xml:space="preserve">
<g>
	<path style="fill:#00AD00;" d="M187.588,80.517l-29.982-1.199c1.38-34.502-43.277-50.85-43.728-51.011L123.83,0
		C126.527,0.943,189.858,23.76,187.588,80.517z"/>
	<path style="fill:#00AD00;" d="M466.233,451.379c-25.985,36.827-73.373,59.481-126.743,60.601c-0.76,0.01-1.48,0.02-2.21,0.02
		c-0.01,0-0.01,0-0.02,0c-0.75,0-1.48-0.01-2.19-0.02c-53.409-1.12-100.788-23.774-126.783-60.601
		c-44.688-63.311-31.876-154.467-1.06-212.378c5.761-10.822,11.712-20.194,17.473-29.265c11.602-18.253,21.614-34.016,26.415-56.03
		c10.202-46.748,32.476-68.392,49.369-78.324c17.283-10.152,32.666-10.562,36.777-10.472c4.111-0.09,19.493,0.32,36.787,10.472
		c16.883,9.932,39.167,31.576,49.359,78.324c4.811,22.024,14.823,37.777,26.415,56.03c5.761,9.072,11.722,18.443,17.473,29.265
		C498.109,296.912,510.921,388.068,466.233,451.379z"/>
</g>
<path style="fill:#D5F3CB;" d="M303.714,451.379c-25.995,36.827-73.373,59.481-126.743,60.601c-0.76,0.01-1.48,0.02-2.21,0.02
	c-0.01,0-0.01,0-0.02,0c-0.76,0-1.48-0.01-2.19-0.02c-53.409-1.12-100.798-23.774-126.793-60.601
	c-44.678-63.311-31.866-154.467-1.05-212.378c5.751-10.822,11.712-20.194,17.473-29.265c11.592-18.253,21.604-34.006,26.415-56.03
	c10.192-46.748,32.476-68.392,49.359-78.324c17.293-10.152,32.676-10.562,36.787-10.472c4.121-0.09,19.493,0.32,36.777,10.472
	c16.893,9.932,39.167,31.576,49.369,78.324c4.801,22.014,14.813,37.777,26.415,56.03c5.761,9.072,11.712,18.443,17.473,29.265
	C335.59,296.912,348.402,388.068,303.714,451.379z"/>
<path style="fill:#B6EFAB;" d="M303.714,451.379c-25.995,36.827-73.373,59.481-126.743,60.601c-0.76,0.01-1.48,0.02-2.21,0.02
	c-0.01,0-0.01,0-0.02,0V64.911c4.121-0.09,19.493,0.32,36.777,10.472c16.893,9.932,39.167,31.576,49.369,78.324
	c4.801,22.014,14.813,37.777,26.415,56.03c5.761,9.072,11.712,18.443,17.473,29.265C335.59,296.912,348.402,388.068,303.714,451.379
	z"/>
<path style="fill:#009100;" d="M466.233,451.379c-25.985,36.827-73.373,59.481-126.743,60.601c-0.76,0.01-1.48,0.02-2.21,0.02
	c-0.01,0-0.01,0-0.02,0V64.911c4.111-0.09,19.493,0.32,36.787,10.472c16.883,9.932,39.167,31.576,49.359,78.324
	c4.811,22.024,14.823,37.777,26.415,56.03c5.761,9.072,11.722,18.443,17.473,29.265
	C498.109,296.912,510.921,388.068,466.233,451.379z"/>
<path style="fill:#B38A65;" d="M264.977,343.64c0,27.995-9.032,54.44-25.424,74.463c-17.123,20.894-40.137,32.396-64.812,32.396
	c-24.684,0-47.698-11.502-64.812-32.396c-16.403-20.024-25.435-46.468-25.435-74.463c0-27.825,9.052-56.47,24.834-78.574
	c17.533-24.584,40.767-38.117,65.412-38.117s47.878,13.532,65.412,38.117C255.936,287.17,264.977,315.815,264.977,343.64z"/>
<path style="fill:#A17852;" d="M264.977,343.64c0,27.995-9.032,54.44-25.424,74.463c-17.123,20.894-40.137,32.396-64.812,32.396
	v-223.55c24.644,0,47.878,13.532,65.412,38.117C255.936,287.17,264.977,315.815,264.977,343.64z"/>
<g>
</g>
<g>
</g>
<g>
</g>
<g>
</g>
<g>
</g>
<g>
</g>
<g>
</g>
<g>
</g>
<g>
</g>
<g>
</g>
<g>
</g>
<g>
</g>
<g>
</g>
<g>
</g>
<g>
</g>
</svg>
