<?xml version="1.0" encoding="iso-8859-1"?>
<!-- Generator: Adobe Illustrator 21.0.0, SVG Export Plug-In . SVG Version: 6.00 Build 0)  -->
<svg version="1.1" id="Capa_1" xmlns="http://www.w3.org/2000/svg" xmlns:xlink="http://www.w3.org/1999/xlink" x="0px" y="0px"
	 viewBox="0 0 512 512" style="enable-background:new 0 0 512 512;" xml:space="preserve">
<path style="fill:#00AD00;" d="M246.003,131.576c-0.08-0.957-1.881-23.757,4.92-50.961c9.29-37.16,30.171-65.036,60.384-80.615
	l13.793,26.751c-54.64,28.174-49.165,101.581-49.103,102.318L246.003,131.576z"/>
<path style="fill:#FF4F19;" d="M416.242,436.354c-18.48,22.102-38.847,40.572-60.517,54.909
	C343.234,499.529,324.373,512,304.348,512h-0.14c-21.079-0.06-38.455-6.872-48.207-11.748c-9.752,4.876-27.128,11.688-48.207,11.748
	c-20.065,0.05-38.997-12.451-51.518-20.738c-21.671-14.337-42.037-32.807-60.517-54.909
	c-61.892-73.991-80.101-170.275-47.535-251.269c20.236-50.314,63.246-81.516,115.065-83.472c14.668-0.552,30.128,0.813,48.689,4.274
	c6.301,1.184,12.451,2.94,18.4,4.635c7.334,2.097,14.287,4.073,20.627,4.755h9.993c6.341-0.682,13.293-2.659,20.627-4.755
	c5.949-1.696,12.099-3.451,18.4-4.635c18.56-3.461,34.031-4.826,48.689-4.274c51.819,1.956,94.829,33.158,115.065,83.472
	C496.343,266.079,478.134,362.363,416.242,436.354z"/>
<path style="fill:#DD2B19;" d="M416.242,436.354c-18.48,22.102-38.847,40.572-60.517,54.909
	C343.234,499.529,324.373,512,304.348,512h-0.14c-21.079-0.06-38.455-6.872-48.207-11.748V115.278h4.996
	c6.341-0.682,13.293-2.659,20.627-4.755c5.949-1.696,12.099-3.451,18.4-4.635c18.56-3.461,34.031-4.826,48.689-4.274
	c51.819,1.956,94.829,33.158,115.065,83.472C496.343,266.079,478.134,362.363,416.242,436.354z"/>
<g>
</g>
<g>
</g>
<g>
</g>
<g>
</g>
<g>
</g>
<g>
</g>
<g>
</g>
<g>
</g>
<g>
</g>
<g>
</g>
<g>
</g>
<g>
</g>
<g>
</g>
<g>
</g>
<g>
</g>
</svg>
