<?xml version="1.0" encoding="iso-8859-1"?>
<!-- Generator: Adobe Illustrator 21.0.0, SVG Export Plug-In . SVG Version: 6.00 Build 0)  -->
<svg version="1.1" id="Capa_1" xmlns="http://www.w3.org/2000/svg" xmlns:xlink="http://www.w3.org/1999/xlink" x="0px" y="0px"
	 viewBox="0 0 512 512" style="enable-background:new 0 0 512 512;" xml:space="preserve">
<path style="fill:#FFEC97;" d="M509.683,440.244l-13.059,7.503c-71.946,41.334-153.853,63.551-236.862,64.233
	c-1.244,0.01-2.508,0.02-3.761,0.02h-0.171c-84.143,0-167.203-22.307-240.483-64.614l-13.029-7.523l38.777-67.182l19.96-34.584
	l71.906-124.585L256,0.361L256.211,0l214.796,373.072L509.683,440.244z"/>
<path style="fill:#FFDF48;" d="M509.683,440.244l-13.059,7.503c-71.946,41.334-153.853,63.551-236.862,64.233
	c-1.244,0.01-2.508,0.02-3.761,0.02V0.361L256.211,0L379.04,213.332l71.676,124.505l20.291,35.236L509.683,440.244z"/>
<path style="fill:#FFAA20;" d="M509.683,440.244l-13.059,7.503c-71.946,41.334-153.853,63.551-236.862,64.233
	c-1.244,0.01-2.508,0.02-3.761,0.02h-0.171c-84.143,0-167.203-22.307-240.483-64.614l-13.029-7.523l38.777-67.182
	c69.318,38.436,142.097,57.684,214.906,57.744c72.799,0.06,145.608-19.047,215.007-57.353L509.683,440.244z"/>
<path style="fill:#DD2B19;" d="M450.716,337.836c-13.17,11.324-30.01,17.643-47.623,17.643c-40.301,0-73.1-32.789-73.1-73.1
	c0-31.505,20.07-58.997,49.048-69.048L450.716,337.836z"/>
<path style="fill:#FF4F19;" d="M181.486,282.379c0,40.311-32.789,73.1-73.1,73.1c-17.483,0-34.213-6.229-47.332-17.382
	l71.906-124.585C161.656,223.713,181.486,251.065,181.486,282.379z"/>
<path style="fill:#C8AD92;" d="M310.384,142.669c0,27.182-22.107,49.288-49.278,49.288c-1.725,0-3.43-0.09-5.105-0.261
	c-24.785-2.558-44.173-23.571-44.173-49.027c0-25.447,19.388-46.46,44.173-49.017c1.675-0.171,3.38-0.261,5.105-0.261
	C288.277,93.391,310.384,115.497,310.384,142.669z"/>
<rect x="184.556" y="355.059" transform="matrix(0.9407 -0.3393 0.3393 0.9407 -113.663 89.577)" style="fill:#FFAA20;" width="29.586" height="29.586"/>
<rect x="278.829" y="238.477" style="fill:#FF8900;" width="29.585" height="29.585"/>
<rect x="199.323" y="215.665" transform="matrix(0.9579 -0.287 0.287 0.9579 -57.1348 71.1486)" style="fill:#00AD00;" width="29.584" height="29.584"/>
<rect x="293.628" y="355.062" transform="matrix(0.2681 -0.9634 0.9634 0.2681 -130.5806 567.827)" style="fill:#009100;" width="29.585" height="29.585"/>
<polygon style="fill:#FF4F19;" points="283.543,320.163 263.292,342.42 256,335.78 218.788,301.898 239.049,279.651 256,295.088 "/>
<polygon style="fill:#DD2B19;" points="263.292,342.42 256,335.78 256,295.088 283.543,320.163 "/>
<path style="fill:#BD9B7B;" d="M261.105,191.957c-1.725,0-3.43-0.09-5.105-0.261V93.652c1.675-0.171,3.38-0.261,5.105-0.261
	c27.172,0,49.278,22.106,49.278,49.278C310.384,169.851,288.277,191.957,261.105,191.957z"/>
<path style="fill:#FF8900;" d="M509.683,440.244l-13.059,7.503c-71.946,41.334-153.853,63.551-236.862,64.233
	c-1.244,0.01-2.508,0.02-3.761,0.02v-81.575c72.799,0.06,145.608-19.047,215.007-57.353L509.683,440.244z"/>
<g>
</g>
<g>
</g>
<g>
</g>
<g>
</g>
<g>
</g>
<g>
</g>
<g>
</g>
<g>
</g>
<g>
</g>
<g>
</g>
<g>
</g>
<g>
</g>
<g>
</g>
<g>
</g>
<g>
</g>
</svg>
