<?xml version="1.0" encoding="iso-8859-1"?>
<!-- Generator: Adobe Illustrator 21.0.0, SVG Export Plug-In . SVG Version: 6.00 Build 0)  -->
<svg version="1.1" id="Capa_1" xmlns="http://www.w3.org/2000/svg" xmlns:xlink="http://www.w3.org/1999/xlink" x="0px" y="0px"
	 viewBox="0 0 512 512" style="enable-background:new 0 0 512 512;" xml:space="preserve">
<rect x="211.95" y="59.28" style="fill:#00AD00;" width="88.1" height="99.15"/>
<rect x="256" y="59.28" style="fill:#009100;" width="44.05" height="99.15"/>
<path style="fill:#2DD729;" d="M443.8,454.67H68.2l32.02-252.06c5.37-42.29,41.57-74.18,84.2-74.18h143.16
	c42.63,0,78.83,31.89,84.2,74.18L443.8,454.67z"/>
<path style="fill:#CAE8F9;" d="M360,280c0,57.35-46.65,104-104,104s-104-46.65-104-104s46.65-104,104-104S360,222.65,360,280z"/>
<path style="fill:#00AD00;" d="M443.8,454.67H256V128.43h71.58c42.63,0,78.83,31.89,84.2,74.18L443.8,454.67z"/>
<path style="fill:#A3D9F6;" d="M256,384V176c57.35,0,104,46.65,104,104S313.35,384,256,384z"/>
<g>
	<path style="fill:#C8AD92;" d="M447.27,0v44.16c0,24.88-20.25,45.12-45.12,45.12h-292.3c-24.87,0-45.12-20.24-45.12-45.12V0H447.27
		z"/>
	<rect x="42.33" y="424.67" style="fill:#C8AD92;" width="427.34" height="87.33"/>
</g>
<rect x="241" y="231" style="fill:#FF4F19;" width="30" height="49"/>
<rect x="256" y="231" style="fill:#DD2B19;" width="15" height="49"/>
<g>
	<path style="fill:#BD9B7B;" d="M402.15,89.28H256V0h191.27v44.16C447.27,69.04,427.02,89.28,402.15,89.28z"/>
	<rect x="256" y="424.67" style="fill:#BD9B7B;" width="213.67" height="87.33"/>
</g>
<g>
</g>
<g>
</g>
<g>
</g>
<g>
</g>
<g>
</g>
<g>
</g>
<g>
</g>
<g>
</g>
<g>
</g>
<g>
</g>
<g>
</g>
<g>
</g>
<g>
</g>
<g>
</g>
<g>
</g>
</svg>
