<?xml version="1.0" encoding="iso-8859-1"?>
<!-- Generator: Adobe Illustrator 21.0.0, SVG Export Plug-In . SVG Version: 6.00 Build 0)  -->
<svg version="1.1" id="Capa_1" xmlns="http://www.w3.org/2000/svg" xmlns:xlink="http://www.w3.org/1999/xlink" x="0px" y="0px"
	 viewBox="0 0 512 512" style="enable-background:new 0 0 512 512;" xml:space="preserve">
<rect x="216.02" y="385.68" style="fill:#C8AD92;" width="79.96" height="126.32"/>
<rect x="256" y="385.68" style="fill:#BD9B7B;" width="39.98" height="126.32"/>
<path style="fill:#F0E7DF;" d="M385.74,129.74v270.94H126.26V129.74C126.26,58.2,184.46,0,256,0S385.74,58.2,385.74,129.74z"/>
<path style="fill:#DFCDBD;" d="M385.74,129.74v270.94H256V0C327.54,0,385.74,58.2,385.74,129.74z"/>
<path style="fill:#FFAA20;" d="M385.74,129.74v162.94H126.26V129.74C126.26,58.2,184.46,0,256,0S385.74,58.2,385.74,129.74z"/>
<path style="fill:#FF8900;" d="M385.74,129.74v162.94H256V0C327.54,0,385.74,58.2,385.74,129.74z"/>
<rect x="192.02" y="201.86" style="fill:#FFEC97;" width="29.75" height="29.75"/>
<rect x="289.02" y="186.99" style="fill:#FFDF48;" width="29.75" height="29.75"/>
<rect x="226.25" y="137.82" style="fill:#FFEC97;" width="29.75" height="29.75"/>
<rect x="293.52" y="84.48" style="fill:#FFDF48;" width="29.75" height="29.75"/>
<rect x="184.79" y="62.12" style="fill:#FFEC97;" width="29.75" height="29.75"/>
<g>
</g>
<g>
</g>
<g>
</g>
<g>
</g>
<g>
</g>
<g>
</g>
<g>
</g>
<g>
</g>
<g>
</g>
<g>
</g>
<g>
</g>
<g>
</g>
<g>
</g>
<g>
</g>
<g>
</g>
</svg>
