<?xml version="1.0" encoding="iso-8859-1"?>
<!-- Generator: Adobe Illustrator 21.0.0, SVG Export Plug-In . SVG Version: 6.00 Build 0)  -->
<svg version="1.1" id="Capa_1" xmlns="http://www.w3.org/2000/svg" xmlns:xlink="http://www.w3.org/1999/xlink" x="0px" y="0px"
	 viewBox="0 0 512 512" style="enable-background:new 0 0 512 512;" xml:space="preserve">
<path style="fill:#FF4F19;" d="M439.209,183.209c0,41.481-29.108,107.215-86.534,195.351
	c-41.941,64.403-84.493,118.105-84.913,118.636L256,512l-11.761-14.804c-0.42-0.531-42.972-54.233-84.913-118.636
	c-57.426-88.136-86.535-153.87-86.535-195.351C72.791,82.19,154.981,0,256,0S439.209,82.19,439.209,183.209z"/>
<path style="fill:#DD2B19;" d="M439.209,183.209c0,41.481-29.108,107.215-86.534,195.351
	c-41.941,64.403-84.493,118.105-84.913,118.636L256,512V0C357.019,0,439.209,82.19,439.209,183.209z"/>
<path style="fill:#F0E7DF;" d="M343.966,177.603c0,48.497-39.459,87.966-87.966,87.966s-87.966-39.469-87.966-87.966
	c0-48.507,39.459-87.966,87.966-87.966S343.966,129.096,343.966,177.603z"/>
<path style="fill:#DFCDBD;" d="M343.966,177.603c0,48.497-39.459,87.966-87.966,87.966V89.638
	C304.507,89.638,343.966,129.096,343.966,177.603z"/>
<g>
</g>
<g>
</g>
<g>
</g>
<g>
</g>
<g>
</g>
<g>
</g>
<g>
</g>
<g>
</g>
<g>
</g>
<g>
</g>
<g>
</g>
<g>
</g>
<g>
</g>
<g>
</g>
<g>
</g>
</svg>
