<?xml version="1.0" encoding="iso-8859-1"?>
<!-- Generator: Adobe Illustrator 21.0.0, SVG Export Plug-In . SVG Version: 6.00 Build 0)  -->
<svg version="1.1" id="Capa_1" xmlns="http://www.w3.org/2000/svg" xmlns:xlink="http://www.w3.org/1999/xlink" x="0px" y="0px"
	 viewBox="0 0 511.999 511.999" style="enable-background:new 0 0 511.999 511.999;" xml:space="preserve">
<path style="fill:#009100;" d="M504.033,122.158c-9.823-16.628-27.219-27.141-46.535-28.125
	c-14.646-0.744-28.871,4.095-40.05,13.626l-84.58,72.081l9.738,11.427l0,0l0.007,0.008l9.731,11.419l0.203-0.173l21.59,24.439
	l5.293,14.051l95.422-35.946c7.721-2.904,14.566-7.306,20.344-13.083C513.7,173.377,517.336,144.71,504.033,122.158z"/>
<path style="fill:#00AD00;" d="M404.343,94.553c9.53-11.181,14.369-25.405,13.626-40.052c-0.984-19.315-11.499-36.713-28.134-46.538
	c-22.544-13.298-51.212-9.661-69.714,8.841c-5.776,5.777-10.178,12.62-13.081,20.336l-35.948,95.431l14.051,5.293l24.439,21.59
	l-0.173,0.203l11.42,9.732l0.007,0.006l0,0l11.428,9.739L404.343,94.553z"/>
<path style="fill:#2DD729;" d="M459.734,137.591L347.02,216.813l-51.83-51.83l79.221-112.714
	c10.427-14.842,26.763-24.241,44.825-25.799c9.032-0.779,17.977,0.438,26.259,3.454c8.288,3.022,15.918,7.835,22.33,14.248
	c0.099,0.099,0.205,0.205,0.297,0.311c12.62,12.79,18.969,30.364,17.412,48.285C483.969,110.823,474.569,127.158,459.734,137.591z"
	/>
<path style="fill:#00AD00;" d="M459.734,137.591L347.02,216.813l-25.614-25.614L468.122,44.483
	c12.62,12.79,18.969,30.364,17.412,48.285C483.969,110.823,474.569,127.158,459.734,137.591z"/>
<path style="fill:#FF4F19;" d="M364.842,302.369l-51.427,34.186l-25.508,16.958l-125.44,83.383l-25.508,16.958L58.99,505.678
	c-14.892,9.894-34.823,7.998-47.584-4.48c-0.106-0.092-0.212-0.198-0.311-0.297c-12.74-12.74-14.75-32.883-4.771-47.889
	l106.571-160.32l16.958-25.508l57.918-87.135l16.958-25.508l4.905-7.382c10.85-16.315,28.247-26.79,47.74-28.728
	c19.5-1.947,38.617,4.884,52.468,18.735l64.996,64.996c13.851,13.851,20.681,32.968,18.735,52.468
	C391.632,274.122,381.156,291.519,364.842,302.369z"/>
<path style="fill:#DD2B19;" d="M364.842,302.369l-51.427,34.186l-25.508,16.958l-125.44,83.383l-25.508,16.958L58.99,505.678
	c-14.892,9.894-34.823,7.998-47.584-4.48L342.64,169.963l32.197,32.197c13.851,13.851,20.681,32.968,18.735,52.468
	C391.632,274.122,381.156,291.519,364.842,302.369z"/>
<g>
	<polygon style="fill:#FFEC97;" points="257.514,207.329 236.281,228.562 187.77,180.051 204.728,154.542 	"/>
	<polygon style="fill:#FFEC97;" points="176.445,313.779 155.212,335.012 112.893,292.694 129.852,267.186 	"/>
</g>
<g>
	<polygon style="fill:#FFDF48;" points="313.414,336.556 287.906,353.514 245.411,311.019 266.645,289.785 	"/>
	<polygon style="fill:#FFDF48;" points="162.467,436.898 136.957,453.856 103.105,420.003 124.338,398.769 	"/>
</g>
<g>
</g>
<g>
</g>
<g>
</g>
<g>
</g>
<g>
</g>
<g>
</g>
<g>
</g>
<g>
</g>
<g>
</g>
<g>
</g>
<g>
</g>
<g>
</g>
<g>
</g>
<g>
</g>
<g>
</g>
</svg>
