<?xml version="1.0" encoding="iso-8859-1"?>
<!-- Generator: Adobe Illustrator 21.0.0, SVG Export Plug-In . SVG Version: 6.00 Build 0)  -->
<svg version="1.1" id="Capa_1" xmlns="http://www.w3.org/2000/svg" xmlns:xlink="http://www.w3.org/1999/xlink" x="0px" y="0px"
	 viewBox="0 0 512 512" style="enable-background:new 0 0 512 512;" xml:space="preserve">
<polygon style="fill:#00AD00;" points="495.96,233.15 425.37,461.85 86.41,461.85 15.83,233.15 "/>
<polygon style="fill:#009100;" points="495.96,233.15 425.37,461.85 256,461.85 256,233.15 "/>
<path style="fill:#B38A65;" d="M356.833,93.4c-50.12,0-90.75,40.63-90.75,90.75h181.5C447.583,134.03,406.953,93.4,356.833,93.4z"/>
<polygon style="fill:#FFDB2D;" points="72.033,81.15 72.033,185.15 87.033,185.15 102.033,185.15 175.246,185.15 190.246,185.15 
	205.246,185.15 205.246,81.15 "/>
<rect x="175.25" y="50.15" style="fill:#FFAA20;" width="126.16" height="135"/>
<g>
	<rect x="140.17" y="316.5" style="fill:#FFEC97;" width="30" height="88"/>
	<rect x="207.83" y="316.5" style="fill:#FFEC97;" width="30" height="88"/>
</g>
<g>
	<rect x="275.5" y="316.5" style="fill:#FFDF48;" width="30" height="88"/>
	<rect x="341.83" y="316.5" style="fill:#FFDF48;" width="30" height="88"/>
</g>
<rect x="256" y="50.15" style="fill:#FF8900;" width="45.41" height="135"/>
<rect y="167.15" style="fill:#2DD729;" width="256" height="96"/>
<rect x="256" y="167.15" style="fill:#00AD00;" width="256" height="96"/>
<g>
</g>
<g>
</g>
<g>
</g>
<g>
</g>
<g>
</g>
<g>
</g>
<g>
</g>
<g>
</g>
<g>
</g>
<g>
</g>
<g>
</g>
<g>
</g>
<g>
</g>
<g>
</g>
<g>
</g>
</svg>
