<?xml version="1.0" encoding="iso-8859-1"?>
<!-- Generator: Adobe Illustrator 21.0.0, SVG Export Plug-In . SVG Version: 6.00 Build 0)  -->
<svg version="1.1" id="Capa_1" xmlns="http://www.w3.org/2000/svg" xmlns:xlink="http://www.w3.org/1999/xlink" x="0px" y="0px"
	 viewBox="0 0 512 512" style="enable-background:new 0 0 512 512;" xml:space="preserve">
<rect x="97.25" y="67.07" style="fill:#FFEC97;" width="317.5" height="377.86"/>
<rect x="256" y="67.07" style="fill:#FFDF48;" width="158.75" height="377.86"/>
<rect x="97.25" y="147.92" style="fill:#FF4F19;" width="317.5" height="216.16"/>
<rect x="256" y="147.92" style="fill:#DD2B19;" width="158.75" height="216.16"/>
<g>
	<path style="fill:#FFAA20;" d="M367.25,210.93v90.14H330.5c-15.45,0-29.1-7.81-37.23-19.69c-12.16,10.11-24.6,17.32-37.27,21.59
		c-9.2,3.11-18.51,4.67-27.91,4.67c-1.65,0-3.3-0.05-4.95-0.14c-7.79-0.45-15.1-1.96-21.86-4.15
		c-32.57-10.56-52.58-37.06-53.58-38.41l-6.63-8.94l6.64-8.94c0.84-1.14,20.98-27.89,53.66-38.44c0.24-0.08,0.48-0.15,0.72-0.23
		c17.77-5.57,36.06-5.28,53.91,0.72c7.66,2.57,15.24,6.2,22.66,10.86h0.01c4.89,3.08,9.77,6.65,14.59,10.66
		c8.13-11.89,21.78-19.7,37.24-19.7L367.25,210.93L367.25,210.93z"/>
	<rect x="77.13" style="fill:#FFAA20;" width="357.74" height="97.07"/>
	<rect x="77.13" y="414.93" style="fill:#FFAA20;" width="357.74" height="97.07"/>
</g>
<path style="fill:#FFEC97;" d="M201.28,303.35c-32.57-10.56-52.58-37.06-53.58-38.41l-6.63-8.94l6.64-8.94
	c0.84-1.14,20.98-27.89,53.66-38.44C208.93,225.84,219.68,262.12,201.28,303.35z"/>
<g>
	<path style="fill:#FF8900;" d="M367.25,210.93v90.14H330.5c-15.45,0-29.1-7.81-37.23-19.69c-12.16,10.11-24.6,17.32-37.27,21.59
		v-93.86c7.66,2.57,15.24,6.2,22.66,10.86h0.01c4.89,3.08,9.77,6.65,14.59,10.66c8.13-11.89,21.78-19.7,37.24-19.7L367.25,210.93
		L367.25,210.93z"/>
	<rect x="256" style="fill:#FF8900;" width="178.87" height="97.07"/>
	<rect x="256" y="414.93" style="fill:#FF8900;" width="178.87" height="97.07"/>
</g>
<g>
</g>
<g>
</g>
<g>
</g>
<g>
</g>
<g>
</g>
<g>
</g>
<g>
</g>
<g>
</g>
<g>
</g>
<g>
</g>
<g>
</g>
<g>
</g>
<g>
</g>
<g>
</g>
<g>
</g>
</svg>
