<?xml version="1.0" encoding="iso-8859-1"?>
<!-- Generator: Adobe Illustrator 21.0.0, SVG Export Plug-In . SVG Version: 6.00 Build 0)  -->
<svg version="1.1" id="Capa_1" xmlns="http://www.w3.org/2000/svg" xmlns:xlink="http://www.w3.org/1999/xlink" x="0px" y="0px"
	 viewBox="0 0 512 512" style="enable-background:new 0 0 512 512;" xml:space="preserve">
<rect x="135.219" style="fill:#FFAA20;" width="98.82" height="66"/>
<rect x="184.629" style="fill:#FF8900;" width="49.41" height="66"/>
<g>
	<path style="fill:#00A5FF;" d="M288.542,511.95H80.732l1.84-39.78l1.39-30l5.35-115.7l6.63-143.41l3.18-68.88
		c1.4-30.24,26.2-53.93,56.48-53.93h58.07c30.27,0,55.08,23.69,56.48,53.93l3.18,68.88l6.63,143.41l5.35,115.7l1.39,30
		L288.542,511.95z"/>
	<rect x="320.268" style="fill:#00A5FF;" width="111" height="190.67"/>
</g>
<g>
	<rect x="342.629" y="44.667" style="fill:#CAE8F9;" width="88.63" height="30"/>
	<rect x="342.629" y="115.67" style="fill:#CAE8F9;" width="88.63" height="30"/>
</g>
<rect x="320.268" style="fill:#FFAA20;" width="30" height="512"/>
<path style="fill:#0088FF;" d="M288.542,511.95h-103.91V60.25h29.04c30.27,0,55.08,23.69,56.48,53.93l3.18,68.88l6.63,143.41
	l5.35,115.7l1.39,30L288.542,511.95z"/>
<g>
	<polygon style="fill:#CAE8F9;" points="286.702,472.17 82.572,472.17 83.962,442.17 285.311,442.17 	"/>
	<polygon style="fill:#CAE8F9;" points="279.962,326.47 89.312,326.47 95.942,183.06 273.332,183.06 	"/>
</g>
<g>
	<polygon style="fill:#A3D9F6;" points="279.962,326.47 184.632,326.47 184.632,183.06 273.332,183.06 	"/>
	<polygon style="fill:#A3D9F6;" points="286.702,472.17 184.632,472.17 184.632,442.17 285.311,442.17 	"/>
</g>
<rect x="320.268" y="261.65" style="fill:#FF8900;" width="30" height="250.35"/>
<g>
</g>
<g>
</g>
<g>
</g>
<g>
</g>
<g>
</g>
<g>
</g>
<g>
</g>
<g>
</g>
<g>
</g>
<g>
</g>
<g>
</g>
<g>
</g>
<g>
</g>
<g>
</g>
<g>
</g>
</svg>
