<?xml version="1.0" encoding="iso-8859-1"?>
<!-- Generator: Adobe Illustrator 21.0.0, SVG Export Plug-In . SVG Version: 6.00 Build 0)  -->
<svg version="1.1" id="Capa_1" xmlns="http://www.w3.org/2000/svg" xmlns:xlink="http://www.w3.org/1999/xlink" x="0px" y="0px"
	 viewBox="0 0 512 512" style="enable-background:new 0 0 512 512;" xml:space="preserve">
<path style="fill:#FFAA20;" d="M453.278,314.722c0,108.635-88.273,197.048-196.858,197.278H256
	c-108.775,0-197.278-88.503-197.278-197.278S147.225,117.444,256,117.444h0.42C365.006,117.674,453.278,206.087,453.278,314.722z"/>
<g>
	<path style="fill:#FF8900;" d="M453.278,314.722c0,108.635-88.273,197.048-196.858,197.278V117.444
		C365.006,117.674,453.278,206.087,453.278,314.722z"/>
	<rect x="168.984" y="411.999" style="fill:#FF8900;" width="30.004" height="30.004"/>
	<rect x="136.319" y="358.992" style="fill:#FF8900;" width="30.004" height="30.004"/>
	<rect x="198.988" y="361.662" style="fill:#FF8900;" width="30.004" height="30.004"/>
</g>
<path style="fill:#B38A65;" d="M312.324,58.715l-5.6-13.918l0,0l0,0l-5.6-13.918C266.251,44.908,250.54,68.761,243.502,86.3
	c-7.543,18.796-6.942,34.289-6.849,35.994l29.959-1.639l0.006,0.114C266.551,119.014,265.485,77.558,312.324,58.715z"/>
<path style="fill:#2DD729;" d="M282.064,67.207l-0.33,2.44l-1.08,2.2c-0.61,1.23-15.142,30.034-46.607,32.835
	c-1.61,0.14-3.23,0.22-4.861,0.22c-28.784,0-59.929-22.453-92.663-66.83l-11.952-16.202l18.953-6.821
	c54.818-19.703,94.553-20.063,118.097-1.06C286.194,33.832,282.244,65.847,282.064,67.207z"/>
<path style="fill:#00AD00;" d="M281.734,69.647l-1.08,2.2c-0.61,1.23-15.142,30.034-46.607,32.835c-1.61,0.14-3.23,0.22-4.861,0.22
	c-28.784,0-59.929-22.453-92.663-66.83l-11.952-16.202L281.734,69.647z"/>
<g>
</g>
<g>
</g>
<g>
</g>
<g>
</g>
<g>
</g>
<g>
</g>
<g>
</g>
<g>
</g>
<g>
</g>
<g>
</g>
<g>
</g>
<g>
</g>
<g>
</g>
<g>
</g>
<g>
</g>
</svg>
