<?xml version="1.0" encoding="iso-8859-1"?>
<!-- Generator: Adobe Illustrator 21.0.0, SVG Export Plug-In . SVG Version: 6.00 Build 0)  -->
<svg version="1.1" id="Capa_1" xmlns="http://www.w3.org/2000/svg" xmlns:xlink="http://www.w3.org/1999/xlink" x="0px" y="0px"
	 viewBox="0 0 512 512" style="enable-background:new 0 0 512 512;" xml:space="preserve">
<rect x="241.004" y="33.302" style="fill:#FFAA20;" width="30.002" height="54.063"/>
<rect x="256.005" y="33.302" style="fill:#FF8900;" width="15.001" height="54.063"/>
<rect x="198.382" y="80.615" style="fill:#CAE8F9;" width="115.247" height="88.285"/>
<rect x="256.005" y="80.615" style="fill:#A3D9F6;" width="57.624" height="88.285"/>
<g>
	<path style="fill:#00A5FF;" d="M389.008,243.404V512H122.992V243.404c0-0.99,0.01-1.97,0.04-2.95
		c1.57-56.263,47.833-101.556,104.466-101.556h57.003c56.633,0,102.896,45.293,104.466,101.556
		C388.998,241.434,389.008,242.414,389.008,243.404z"/>
	<path style="fill:#00A5FF;" d="M347.216,14.47l-18.191,23.851c-0.78-0.56-7.38-5.14-16.341-7.29
		c-11.351-2.72-21.251-0.44-30.272,6.96c-8.911,7.31-17.851,11.491-26.412,13.471c-4.28,0.99-8.461,1.42-12.501,1.42
		c-17.651,0-32.502-8.351-40.222-15.451l20.311-22.081c0.8,0.67,5.84,4.7,12.901,6.57c6.69,1.76,13.131,1.04,19.511-2.21
		c2.47-1.26,4.92-2.89,7.38-4.91C295.482-11.552,332.265,3.059,347.216,14.47z"/>
</g>
<g>
	<path style="fill:#0088FF;" d="M389.008,243.404V512H256V138.897h28.502c56.633,0,102.896,45.293,104.466,101.556
		C388.998,241.434,389.008,242.414,389.008,243.404z"/>
	<path style="fill:#0088FF;" d="M282.411,37.991c-8.911,7.31-17.851,11.491-26.412,13.471V19.71c2.47-1.26,4.92-2.89,7.38-4.91
		c32.102-26.352,68.884-11.741,83.835-0.33l-18.191,23.851c-0.78-0.56-7.38-5.14-16.341-7.29
		C301.333,28.311,291.431,30.591,282.411,37.991z"/>
</g>
<path style="fill:#CAE8F9;" d="M389.008,243.404v180.061H122.992V243.404c0-0.99,0.01-1.97,0.04-2.95h265.936
	C388.998,241.434,389.008,242.414,389.008,243.404z"/>
<path style="fill:#A3D9F6;" d="M389.008,243.404v180.061H256V240.454h132.968C388.998,241.434,389.008,242.414,389.008,243.404z"/>
<path style="fill:#FFAA20;" d="M304.503,331.959c0,26.742-21.761,48.503-48.503,48.503s-48.503-21.761-48.503-48.503
	s21.761-48.503,48.503-48.503S304.503,305.218,304.503,331.959z"/>
<path style="fill:#FF8900;" d="M304.503,331.959c0,26.742-21.761,48.503-48.503,48.503v-97.006
	C282.742,283.456,304.503,305.218,304.503,331.959z"/>
<g>
</g>
<g>
</g>
<g>
</g>
<g>
</g>
<g>
</g>
<g>
</g>
<g>
</g>
<g>
</g>
<g>
</g>
<g>
</g>
<g>
</g>
<g>
</g>
<g>
</g>
<g>
</g>
<g>
</g>
</svg>
