<?xml version="1.0" encoding="iso-8859-1"?>
<!-- Generator: Adobe Illustrator 21.0.0, SVG Export Plug-In . SVG Version: 6.00 Build 0)  -->
<svg version="1.1" id="Capa_1" xmlns="http://www.w3.org/2000/svg" xmlns:xlink="http://www.w3.org/1999/xlink" x="0px" y="0px"
	 viewBox="0 0 512 512" style="enable-background:new 0 0 512 512;" xml:space="preserve">
<polygon style="fill:#FFEC97;" points="435.24,188.31 435.24,512 76.76,512 76.76,188.31 142.72,71.56 369.28,71.56 "/>
<polygon style="fill:#FFDF48;" points="435.24,188.31 435.24,512 255.05,512 255.05,71.56 369.28,71.56 "/>
<rect x="76.76" y="188.33" style="fill:#00AD00;" width="358.48" height="213.39"/>
<rect x="255.05" y="188.33" style="fill:#009100;" width="180.19" height="213.39"/>
<rect x="112.76" style="fill:#FFAA20;" width="286.48" height="101.56"/>
<path style="fill:#2DD729;" d="M286.09,249.78c-13.4,4.84-14.96,19.99-15.1,21.78l-15.94-0.6l-14.04-0.52
	c0.34-9.06,3.94-23.39,14.04-34.8c5.12-5.81,11.94-10.86,20.86-14.08L286.09,249.78z"/>
<path style="fill:#FFAA20;" d="M310.5,312.5c0,30.05-24.45,54.5-54.5,54.5c-0.32,0-0.64,0-0.95-0.01
	c-29.62-0.51-53.55-24.76-53.55-54.49s23.93-53.98,53.55-54.49c0.31-0.01,0.63-0.01,0.95-0.01C286.05,258,310.5,282.45,310.5,312.5z
	"/>
<path style="fill:#00AD00;" d="M286.09,249.78c-13.4,4.84-14.96,19.99-15.1,21.78l-15.94-0.6v-35.32
	c5.12-5.81,11.94-10.86,20.86-14.08L286.09,249.78z"/>
<g>
	<path style="fill:#FF8900;" d="M310.5,312.5c0,30.05-24.45,54.5-54.5,54.5c-0.32,0-0.64,0-0.95-0.01V258.01
		c0.31-0.01,0.63-0.01,0.95-0.01C286.05,258,310.5,282.45,310.5,312.5z"/>
	<rect x="255.05" style="fill:#FF8900;" width="144.19" height="101.56"/>
</g>
<g>
</g>
<g>
</g>
<g>
</g>
<g>
</g>
<g>
</g>
<g>
</g>
<g>
</g>
<g>
</g>
<g>
</g>
<g>
</g>
<g>
</g>
<g>
</g>
<g>
</g>
<g>
</g>
<g>
</g>
</svg>
