<?xml version="1.0" encoding="iso-8859-1"?>
<!-- Generator: Adobe Illustrator 21.0.0, SVG Export Plug-In . SVG Version: 6.00 Build 0)  -->
<svg version="1.1" id="Capa_1" xmlns="http://www.w3.org/2000/svg" xmlns:xlink="http://www.w3.org/1999/xlink" x="0px" y="0px"
	 viewBox="0 0 512 512" style="enable-background:new 0 0 512 512;" xml:space="preserve">
<path style="fill:#C8AD92;" d="M374.45,0h-236.9L79.04,116.44V512h353.92V116.44L374.45,0z M256,118.57c-10.2,0-18.5-8.3-18.5-18.5
	s8.3-18.5,18.5-18.5c10.2,0,18.5,8.3,18.5,18.5S266.2,118.57,256,118.57z"/>
<path style="fill:#BD9B7B;" d="M432.96,116.44V512H256V118.57c10.2,0,18.5-8.3,18.5-18.5s-8.3-18.5-18.5-18.5V0h118.45
	L432.96,116.44z"/>
<rect x="241" style="fill:#FFFFFF;" width="30" height="61"/>
<rect x="256" style="fill:#DFCDBD;" width="15" height="61"/>
<path style="fill:#00AD00;" d="M308.93,312c0,7.58-1.42,13.99-4.26,19.22c-2.84,5.25-6.6,9.47-11.27,12.69
	c-4.67,3.22-10.03,5.56-16.09,7.01c-2.11,0.5-4.24,0.91-6.39,1.24v26.55h-30v-27.16c-4.31-0.73-8.53-1.68-12.66-2.9
	c-4.93-1.45-9.69-3.19-14.3-5.21s-8.87-4.36-12.78-7.01l13.63-27.08c0.5,0.63,2.15,1.83,4.92,3.6c2.78,1.77,6.22,3.54,10.33,5.3
	c4.1,1.77,8.67,3.35,13.73,4.74c4.02,1.11,8.09,1.77,12.21,1.99c1.04,0.06,2.08,0.09,3.13,0.09c10.98,0,16.47-3.34,16.47-10.04
	c0-2.52-0.82-4.6-2.46-6.25c-1.64-1.64-3.92-3.12-6.82-4.45c-2.9-1.32-6.34-2.55-10.32-3.69c-3.98-1.14-8.3-2.4-12.97-3.79
	c-6.19-1.89-11.55-3.94-16.1-6.15c-4.54-2.21-8.3-4.77-11.27-7.67c-2.96-2.9-5.18-6.25-6.62-10.04c-1.46-3.79-2.18-8.2-2.18-13.26
	c0-7.06,1.32-13.31,3.97-18.74c2.66-5.43,6.25-10.01,10.8-13.73c4.54-3.73,9.81-6.54,15.81-8.43c1.15-0.36,2.31-0.68,3.48-0.97
	v-25.07h30v24.65c4.32,0.87,8.47,1.96,12.45,3.28c4.16,1.39,8.05,2.97,11.64,4.74c3.6,1.77,6.92,3.53,9.95,5.3l-13.64,25.75
	c-0.38-0.5-1.7-1.45-3.98-2.84c-2.27-1.38-5.11-2.84-8.52-4.35c-3.41-1.52-7.13-2.84-11.17-3.98c-3.88-1.09-7.77-1.65-11.65-1.69
	c-0.16-0.01-0.31-0.01-0.47-0.01c-11.11,0-16.67,3.72-16.67,11.17c0,2.27,0.6,4.17,1.8,5.68c1.2,1.52,2.97,2.87,5.3,4.07
	c2.34,1.2,5.27,2.31,8.81,3.32c0.4,0.12,0.81,0.23,1.23,0.35c3.24,0.92,6.94,1.94,11.08,3.06c6.44,1.77,12.24,3.69,17.42,5.77
	c5.18,2.09,9.57,4.67,13.16,7.77c3.6,3.09,6.38,6.85,8.34,11.27C307.95,300.52,308.93,305.82,308.93,312z"/>
<rect x="79.04" y="416.67" style="fill:#FFFFFF;" width="353.92" height="30"/>
<path style="fill:#B38A65;" d="M256,51.57c-26.74,0-48.5,21.76-48.5,48.5c0,26.75,21.76,48.5,48.5,48.5s48.5-21.75,48.5-48.5
	C304.5,73.33,282.74,51.57,256,51.57z M256,118.57c-10.2,0-18.5-8.3-18.5-18.5s8.3-18.5,18.5-18.5c10.2,0,18.5,8.3,18.5,18.5
	S266.2,118.57,256,118.57z"/>
<path style="fill:#A17852;" d="M304.5,100.07c0,26.75-21.76,48.5-48.5,48.5v-30c10.2,0,18.5-8.3,18.5-18.5s-8.3-18.5-18.5-18.5v-30
	C282.74,51.57,304.5,73.33,304.5,100.07z"/>
<g>
	<path style="fill:#009100;" d="M267.65,245.34c-3.88-1.09-7.77-1.65-11.65-1.69v-50.86h14.92v24.65c4.32,0.87,8.47,1.96,12.45,3.28
		c4.16,1.39,8.05,2.97,11.64,4.74c3.6,1.77,6.92,3.53,9.95,5.3l-13.64,25.75c-0.38-0.5-1.7-1.45-3.98-2.84
		c-2.27-1.38-5.11-2.84-8.52-4.35C275.41,247.8,271.69,246.48,267.65,245.34z"/>
	<path style="fill:#009100;" d="M308.93,312c0,7.58-1.42,13.99-4.26,19.22c-2.84,5.25-6.6,9.47-11.27,12.69
		c-4.67,3.22-10.03,5.56-16.09,7.01c-2.11,0.5-4.24,0.91-6.39,1.24v26.55H256v-53.73c1.04,0.06,2.08,0.09,3.13,0.09
		c10.98,0,16.47-3.34,16.47-10.04c0-2.52-0.82-4.6-2.46-6.25c-1.64-1.64-3.92-3.12-6.82-4.45c-2.9-1.32-6.34-2.55-10.32-3.69v-32.41
		c3.24,0.92,6.94,1.94,11.08,3.06c6.44,1.77,12.24,3.69,17.42,5.77c5.18,2.09,9.57,4.67,13.16,7.77c3.6,3.09,6.38,6.85,8.34,11.27
		C307.95,300.52,308.93,305.82,308.93,312z"/>
</g>
<rect x="256" y="416.67" style="fill:#DFCDBD;" width="176.96" height="30"/>
<g>
</g>
<g>
</g>
<g>
</g>
<g>
</g>
<g>
</g>
<g>
</g>
<g>
</g>
<g>
</g>
<g>
</g>
<g>
</g>
<g>
</g>
<g>
</g>
<g>
</g>
<g>
</g>
<g>
</g>
</svg>
