<?xml version="1.0" encoding="iso-8859-1"?>
<!-- Generator: Adobe Illustrator 21.0.0, SVG Export Plug-In . SVG Version: 6.00 Build 0)  -->
<svg version="1.1" id="Capa_1" xmlns="http://www.w3.org/2000/svg" xmlns:xlink="http://www.w3.org/1999/xlink" x="0px" y="0px"
	 viewBox="0 0 512 512" style="enable-background:new 0 0 512 512;" xml:space="preserve">
<path style="fill:#FFEC97;" d="M417.961,167.758c0,48.89-39.78,88.67-88.67,88.67s-88.67-39.78-88.67-88.67
	c0-23.54,9.16-56.03,23.33-82.76c18.18-34.31,41.38-53.2,65.34-53.2s47.16,18.89,65.34,53.2
	C408.801,111.727,417.961,144.217,417.961,167.758z"/>
<path style="fill:#FFDF48;" d="M417.961,167.758c0,48.89-39.78,88.67-88.67,88.67V31.798c23.96,0,47.16,18.89,65.34,53.2
	C408.801,111.727,417.961,144.217,417.961,167.758z"/>
<path style="fill:#FFEC97;" d="M495.787,263.832c0,48.89-39.78,88.67-88.67,88.67s-88.67-39.78-88.67-88.67
	c0-23.54,9.16-56.03,23.33-82.76c18.18-34.31,41.38-53.2,65.34-53.2s47.16,18.89,65.34,53.2
	C486.627,207.803,495.787,240.292,495.787,263.832z"/>
<path style="fill:#FFDF48;" d="M495.787,263.832c0,48.89-39.78,88.67-88.67,88.67v-224.63c23.96,0,47.16,18.89,65.34,53.2
	C486.627,207.803,495.787,240.292,495.787,263.832z"/>
<path style="fill:#FFEC97;" d="M267.237,167.758c0,48.89-39.78,88.67-88.67,88.67s-88.67-39.78-88.67-88.67
	c0-23.54,9.16-56.03,23.33-82.76c18.18-34.31,41.38-53.2,65.34-53.2s47.16,18.89,65.34,53.2
	C258.077,111.727,267.237,144.217,267.237,167.758z"/>
<path style="fill:#FFDF48;" d="M267.237,167.758c0,48.89-39.78,88.67-88.67,88.67V31.798c23.96,0,47.16,18.89,65.34,53.2
	C258.077,111.727,267.237,144.217,267.237,167.758z"/>
<path style="fill:#FFEC97;" d="M193.57,263.832c0,48.89-39.78,88.67-88.67,88.67s-88.67-39.78-88.67-88.67
	c0-23.54,9.16-56.03,23.33-82.76c18.18-34.31,41.38-53.2,65.34-53.2s47.16,18.89,65.34,53.2
	C184.41,207.803,193.57,240.292,193.57,263.832z"/>
<path style="fill:#FFDF48;" d="M193.57,263.832c0,48.89-39.78,88.67-88.67,88.67v-224.63c23.96,0,47.16,18.89,65.34,53.2
	C184.41,207.803,193.57,240.292,193.57,263.832z"/>
<path style="fill:#FFEC97;" d="M344.752,263.832c0,48.89-39.78,88.67-88.67,88.67s-88.67-39.78-88.67-88.67
	c0-23.54,9.16-56.03,23.33-82.76c18.18-34.31,41.38-53.2,65.34-53.2s47.16,18.89,65.34,53.2
	C335.591,207.803,344.752,240.292,344.752,263.832z"/>
<path style="fill:#FFDF48;" d="M344.752,263.832c0,48.89-39.78,88.67-88.67,88.67v-224.63c23.96,0,47.16,18.89,65.34,53.2
	C335.591,207.803,344.752,240.292,344.752,263.832z"/>
<polygon style="fill:#B38A65;" points="491.54,317.622 461.22,480.203 352.11,480.203 339.74,413.911 323.16,413.911 
	310.79,480.203 201.68,480.203 189.32,413.911 172.26,413.911 159.89,480.203 50.78,480.203 20.46,317.622 "/>
<polygon style="fill:#A17852;" points="491.54,317.622 461.22,480.203 352.11,480.203 339.74,413.911 323.16,413.911 
	310.79,480.203 256.08,480.203 256.08,317.622 "/>
<rect y="259.45" style="fill:#C8AD92;" width="512" height="88.17"/>
<rect x="256.08" y="259.45" style="fill:#BD9B7B;" width="255.92" height="88.17"/>
<g>
</g>
<g>
</g>
<g>
</g>
<g>
</g>
<g>
</g>
<g>
</g>
<g>
</g>
<g>
</g>
<g>
</g>
<g>
</g>
<g>
</g>
<g>
</g>
<g>
</g>
<g>
</g>
<g>
</g>
</svg>
