<?xml version="1.0" encoding="iso-8859-1"?>
<!-- Generator: Adobe Illustrator 21.0.0, SVG Export Plug-In . SVG Version: 6.00 Build 0)  -->
<svg version="1.1" id="Capa_1" xmlns="http://www.w3.org/2000/svg" xmlns:xlink="http://www.w3.org/1999/xlink" x="0px" y="0px"
	 viewBox="0 0 512 512" style="enable-background:new 0 0 512 512;" xml:space="preserve">
<path style="fill:#F0E7DF;" d="M193.809,449.034c-0.007-15.943-5.895-30.988-16.637-42.649l65.146-65.146l-71.557-71.558
	l-65.146,65.146c-11.662-10.742-26.706-16.63-42.649-16.637c-16.828,0-32.651,6.553-44.546,18.448
	c-24.563,24.563-24.556,64.523,0.007,89.086c11.895,11.896,27.711,18.455,44.532,18.448c1.712,0,3.418-0.064,5.095-0.198
	c-0.014,0.198-0.028,0.396-0.042,0.594c-1.245,17.578,4.848,35.587,18.265,49.004C98.56,505.858,114.68,512,130.815,512
	c16.134,0,32.262-6.136,44.546-18.42C187.256,481.684,193.809,465.861,193.809,449.034z"/>
<path style="fill:#B38A65;" d="M500.899,249.888l-61.919,61.919c-33.868,33.868-78.074,53.42-124.475,55.055
	c-2.109,0.071-4.203,0.113-6.291,0.106c-44.242,0-85.102-16.531-115.664-46.938l-0.29-0.29
	c-65.832-65.832-62.272-176.515,7.933-246.721L262.112,11.1L500.899,249.888z"/>
<path d="M465.382,263.96c-13.023,0.001-28.168-3.605-44.864-10.829c-30.376-13.143-63.824-37.102-94.185-67.464l0,0l0,0
	c-30.361-30.361-54.32-63.81-67.463-94.185c-15.023-34.718-14.398-62.736,1.759-78.893c16.158-16.156,44.173-16.782,78.892-1.758
	c30.375,13.143,63.824,37.102,94.185,67.463s54.319,63.811,67.463,94.186c15.022,34.717,14.398,62.736-1.759,78.892
	C491.023,259.758,479.438,263.96,465.382,263.96z"/>
<path style="fill:#DFCDBD;" d="M193.809,449.034c0,16.828-6.553,32.651-18.448,44.546C163.076,505.865,146.949,512,130.815,512
	s-32.255-6.143-44.539-18.427c-13.417-13.417-19.51-31.427-18.265-49.004L206.83,305.75l35.488,35.488l-65.146,65.146
	C187.914,418.046,193.802,433.09,193.809,449.034z"/>
<path style="fill:#A17852;" d="M500.899,249.888l-61.919,61.919c-33.868,33.868-78.074,53.42-124.475,55.055
	c-2.109,0.071-4.203,0.113-6.291,0.106c-44.242,0-85.102-16.531-115.664-46.938l189.245-189.246L500.899,249.888z"/>
<path style="fill:#C8AD92;" d="M499.412,251.374c-8.385,8.385-19.977,12.589-34.031,12.589c-13.021,0-28.164-3.609-44.865-10.827
	c-30.273-13.106-63.617-36.953-93.898-67.177l-0.29-0.29c-30.358-30.358-54.319-63.816-67.467-94.188
	c-15.016-34.717-14.394-62.74,1.762-78.895c16.162-16.148,44.179-16.778,78.895-1.762c30.372,13.148,63.83,37.109,94.188,67.467
	l0.29,0.29c30.224,30.28,54.071,63.624,67.177,93.898C516.19,207.196,515.568,235.218,499.412,251.374z"/>
<path style="fill:#BD9B7B;" d="M499.412,251.374c-8.385,8.385-19.977,12.589-34.031,12.589c-13.021,0-28.164-3.609-44.865-10.827
	c-30.273-13.106-63.617-36.953-93.898-67.177L433.998,78.581c30.224,30.28,54.071,63.624,67.177,93.898
	C516.19,207.196,515.568,235.218,499.412,251.374z"/>
<path style="fill:#FFFFFF;" d="M420.255,172.216c-8.754,8.754-33.734-1.989-55.876-24.017l-0.29-0.29
	c-22.22-22.22-33.103-47.37-24.307-56.166c8.796-8.796,33.946,2.088,56.166,24.308l0.29,0.29
	C418.26,138.491,429.016,163.456,420.255,172.216z"/>
<path style="fill:#DFCDBD;" d="M420.255,172.216c-8.754,8.754-33.734-1.989-55.876-24.017l31.858-31.858
	C418.26,138.491,429.016,163.456,420.255,172.216z"/>
<g>
</g>
<g>
</g>
<g>
</g>
<g>
</g>
<g>
</g>
<g>
</g>
<g>
</g>
<g>
</g>
<g>
</g>
<g>
</g>
<g>
</g>
<g>
</g>
<g>
</g>
<g>
</g>
<g>
</g>
</svg>
