<?xml version="1.0" encoding="iso-8859-1"?>
<!-- Generator: Adobe Illustrator 21.0.0, SVG Export Plug-In . SVG Version: 6.00 Build 0)  -->
<svg version="1.1" id="Capa_1" xmlns="http://www.w3.org/2000/svg" xmlns:xlink="http://www.w3.org/1999/xlink" x="0px" y="0px"
	 viewBox="0 0 512 512" style="enable-background:new 0 0 512 512;" xml:space="preserve">
<rect x="319.993" y="86.146" transform="matrix(0.6437 -0.7652 0.7652 0.6437 -4.3506 313.938)" style="fill:#BD9B7B;" width="29.998" height="150.991"/>
<rect x="101.49" y="146.613" transform="matrix(0.7652 -0.6438 0.6438 0.7652 -62.4881 151.8931)" style="fill:#C8AD92;" width="151.001" height="30"/>
<rect y="195.23" style="fill:#00A5FF;" width="512" height="260.22"/>
<rect x="256" y="195.23" style="fill:#0088FF;" width="256" height="260.22"/>
<g>
	<path style="fill:#CAE8F9;" d="M114.13,377.48c-7.743,0-14.769-1.481-21.078-4.445c-6.309-2.962-11.71-6.858-16.203-11.686
		c-4.494-4.826-7.982-10.346-10.467-16.561c-2.487-6.213-3.728-12.618-3.728-19.214c0-6.69,1.291-13.142,3.872-19.357
		c2.581-6.213,6.188-11.686,10.826-16.418c4.635-4.731,10.131-8.506,16.489-11.327c6.356-2.818,13.31-4.23,20.863-4.23
		c7.743,0,14.769,1.483,21.078,4.445c6.309,2.964,11.708,6.883,16.203,11.758c4.492,4.875,7.958,10.42,10.396,16.633
		c2.438,6.215,3.656,12.571,3.656,19.07c0,6.692-1.291,13.12-3.872,19.285s-6.166,11.614-10.754,16.346
		c-4.588,4.731-10.062,8.531-16.417,11.399C128.634,376.046,121.68,377.48,114.13,377.48z M91.045,325.861
		c0,3.441,0.477,6.764,1.434,9.965c0.955,3.204,2.389,6.047,4.302,8.532c1.911,2.487,4.324,4.494,7.241,6.022
		c2.915,1.53,6.38,2.294,10.395,2.294s7.503-0.789,10.467-2.366c2.962-1.577,5.377-3.631,7.241-6.165
		c1.864-2.531,3.248-5.424,4.158-8.675c0.907-3.249,1.362-6.546,1.362-9.894c0-3.441-0.479-6.761-1.434-9.965
		c-0.956-3.202-2.415-6.022-4.374-8.459c-1.96-2.438-4.397-4.396-7.313-5.879c-2.917-1.481-6.333-2.223-10.252-2.223
		c-4.015,0-7.481,0.766-10.396,2.294c-2.917,1.53-5.33,3.562-7.241,6.094c-1.913,2.534-3.322,5.401-4.229,8.603
		C91.498,319.243,91.045,322.516,91.045,325.861z"/>
	<path style="fill:#CAE8F9;" d="M177.936,376.62V274.816h43.876c4.969,0,9.558,1.028,13.765,3.083
		c4.205,2.057,7.814,4.732,10.826,8.03c3.011,3.298,5.377,7.075,7.098,11.327c1.72,4.255,2.58,8.532,2.58,12.833
		c0,4.494-0.813,8.867-2.437,13.12c-1.626,4.254-3.896,8.029-6.811,11.328c-2.917,3.298-6.453,5.928-10.611,7.886
		c-4.158,1.96-8.724,2.939-13.693,2.939h-16.633v31.258H177.936z M205.896,320.986h14.769c1.721,0,3.32-0.789,4.803-2.366
		c1.481-1.577,2.223-4.42,2.223-8.531c0-4.206-0.86-7.073-2.581-8.603c-1.721-1.528-3.442-2.294-5.162-2.294h-14.052V320.986z"/>
</g>
<g>
	<path style="fill:#A3D9F6;" d="M339.817,352.244v24.375h-72.553V274.816h71.263v24.376h-43.303v14.338h36.994v22.655h-36.994
		v16.059L339.817,352.244L339.817,352.244z"/>
	<path style="fill:#A3D9F6;" d="M380.823,326.578v50.042h-27.96V274.816h21.794l40.865,51.762v-51.762h27.96V376.62h-22.225
		L380.823,326.578z"/>
</g>
<path style="fill:#00A5FF;" d="M256,56.55c-26.32,0-47.73,21.41-47.73,47.72c0,26.32,21.41,47.73,47.73,47.73
	s47.73-21.41,47.73-47.73C303.73,77.96,282.32,56.55,256,56.55z M256,122c-9.77,0-17.73-7.95-17.73-17.73
	c0-9.77,7.96-17.72,17.73-17.72s17.73,7.95,17.73,17.72C273.73,114.05,265.77,122,256,122z"/>
<path style="fill:#0088FF;" d="M303.73,104.27c0,26.32-21.41,47.73-47.73,47.73v-30c9.77,0,17.73-7.95,17.73-17.73
	c0-9.77-7.96-17.72-17.73-17.72v-30C282.32,56.55,303.73,77.96,303.73,104.27z"/>
<g>
</g>
<g>
</g>
<g>
</g>
<g>
</g>
<g>
</g>
<g>
</g>
<g>
</g>
<g>
</g>
<g>
</g>
<g>
</g>
<g>
</g>
<g>
</g>
<g>
</g>
<g>
</g>
<g>
</g>
</svg>
