<?xml version="1.0" encoding="iso-8859-1"?>
<!-- Generator: Adobe Illustrator 21.0.0, SVG Export Plug-In . SVG Version: 6.00 Build 0)  -->
<svg version="1.1" id="Capa_1" xmlns="http://www.w3.org/2000/svg" xmlns:xlink="http://www.w3.org/1999/xlink" x="0px" y="0px"
	 viewBox="0 0 512 512" style="enable-background:new 0 0 512 512;" xml:space="preserve">
<rect x="182.348" y="61.672" style="fill:#FFAA20;" width="157.238" height="103.528"/>
<rect x="300.271" y="34.873" style="fill:#DD2B19;" width="111.161" height="130.328"/>
<polygon style="fill:#00AD00;" points="460.761,387.808 460.761,417.82 144.914,417.82 144.914,337.741 69.946,54.616 0,54.616 
	0,24.605 93.045,24.605 122.325,135.195 512,135.195 457.01,350.795 174.925,350.795 174.925,387.808 "/>
<path style="fill:#B38A65;" d="M218.329,398.552c-24.494,0-44.421,19.927-44.421,44.421s19.927,44.421,44.421,44.421
	s44.42-19.927,44.42-44.421S242.823,398.552,218.329,398.552z"/>
<g>
	<rect x="194.042" y="202.895" style="fill:#FFEC97;" width="30.011" height="95.175"/>
	<rect x="256.145" y="202.895" style="fill:#FFEC97;" width="30.011" height="95.175"/>
</g>
<g>
	<rect x="300.271" y="387.813" style="fill:#009100;" width="160.49" height="30.011"/>
	<polygon style="fill:#009100;" points="457.01,350.795 300.271,350.795 300.271,135.195 512,135.195 	"/>
</g>
<g>
	<rect x="318.258" y="202.895" style="fill:#FFDF48;" width="30.011" height="95.175"/>
	<rect x="380.371" y="202.895" style="fill:#FFDF48;" width="30.011" height="95.175"/>
</g>
<path style="fill:#A17852;" d="M401.568,398.552c-24.494,0-44.421,19.927-44.421,44.421s19.927,44.421,44.421,44.421
	s44.42-19.927,44.42-44.421S426.062,398.552,401.568,398.552z"/>
<g>
</g>
<g>
</g>
<g>
</g>
<g>
</g>
<g>
</g>
<g>
</g>
<g>
</g>
<g>
</g>
<g>
</g>
<g>
</g>
<g>
</g>
<g>
</g>
<g>
</g>
<g>
</g>
<g>
</g>
</svg>
