<?xml version="1.0" encoding="iso-8859-1"?>
<!-- Generator: Adobe Illustrator 21.0.0, SVG Export Plug-In . SVG Version: 6.00 Build 0)  -->
<svg version="1.1" id="Capa_1" xmlns="http://www.w3.org/2000/svg" xmlns:xlink="http://www.w3.org/1999/xlink" x="0px" y="0px"
	 viewBox="0 0 512 512" style="enable-background:new 0 0 512 512;" xml:space="preserve">
<path style="fill:#FFEC97;" d="M512,219.18V456.8H0V351.112h15.008c13.748,0,24.934-11.186,24.934-24.934
	c0-13.748-11.186-24.934-24.934-24.934H0v-91.07L255.96,97.894L353.273,55.2l4.422,0.75c1.431,0.24,35.409,6.183,71.279,28.906
	c48.136,30.487,76.822,76.652,82.935,133.523L512,219.18z"/>
<path style="fill:#FFDF48;" d="M512,219.18V456.8H255.96V97.894L353.273,55.2l4.422,0.75c1.431,0.24,35.409,6.183,71.279,28.906
	c48.136,30.487,76.822,76.652,82.935,133.523L512,219.18z"/>
<path style="fill:#FFDB2D;" d="M454.869,218.499c0.42,3.192,0.64,6.434,0.64,9.675c0,40.622-33.058,73.68-73.68,73.68
	s-73.67-33.058-73.67-73.68c0-3.242,0.21-6.484,0.64-9.675H0v-8.325L255.96,97.894L353.273,55.2l4.422,0.75
	c1.431,0.24,35.409,6.183,71.279,28.906c48.136,30.487,76.822,76.652,82.935,133.523l0.01,0.12L454.869,218.499L454.869,218.499z"/>
<path style="fill:#FFAA20;" d="M151.27,277.474c-30.299,0-54.949,24.649-54.949,54.948s24.65,54.949,54.949,54.949
	s54.949-24.65,54.949-54.949S181.569,277.474,151.27,277.474z"/>
<path style="fill:#FF8900;" d="M409.824,456.22c0,0.19,0,0.39-0.01,0.58H259.242c-0.01-0.19-0.01-0.39-0.01-0.58
	c0-41.523,33.779-75.301,75.301-75.301C376.046,380.918,409.824,414.697,409.824,456.22z"/>
<path style="fill:#FEC000;" d="M454.869,218.499c0.42,3.192,0.64,6.434,0.64,9.675c0,40.622-33.058,73.68-73.68,73.68
	s-73.67-33.058-73.67-73.68c0-3.242,0.21-6.484,0.64-9.675H255.96V97.894L353.273,55.2l4.422,0.75
	c1.431,0.24,35.409,6.183,71.279,28.906c48.136,30.487,76.822,76.652,82.935,133.523l0.01,0.12L454.869,218.499L454.869,218.499z"/>
<path style="fill:#FF8900;" d="M308.76,218.83c-0.401,3.086-0.601,6.214-0.601,9.345c0,40.622,33.048,73.68,73.67,73.68
	s73.68-33.058,73.68-73.68c0-3.131-0.21-6.259-0.602-9.345H308.76z"/>
<g>
</g>
<g>
</g>
<g>
</g>
<g>
</g>
<g>
</g>
<g>
</g>
<g>
</g>
<g>
</g>
<g>
</g>
<g>
</g>
<g>
</g>
<g>
</g>
<g>
</g>
<g>
</g>
<g>
</g>
</svg>
