<?xml version="1.0" encoding="iso-8859-1"?>
<!-- Generator: Adobe Illustrator 21.0.0, SVG Export Plug-In . SVG Version: 6.00 Build 0)  -->
<svg version="1.1" id="Capa_1" xmlns="http://www.w3.org/2000/svg" xmlns:xlink="http://www.w3.org/1999/xlink" x="0px" y="0px"
	 viewBox="0 0 512 512" style="enable-background:new 0 0 512 512;" xml:space="preserve">
<rect y="73.125" style="fill:#00AD00;" width="512" height="307.84"/>
<rect x="250.5" y="73.125" style="fill:#009100;" width="261.5" height="307.84"/>
<path style="fill:#D5F3CB;" d="M360.5,227.05c0,60.65-49.35,110-110,110s-110-49.35-110-110s49.35-110,110-110
	S360.5,166.4,360.5,227.05z"/>
<path style="fill:#B6EFAB;" d="M250.5,337.05v-220c60.65,0,110,49.35,110,110S311.15,337.05,250.5,337.05z"/>
<rect x="250.5" y="408.875" style="fill:#009100;" width="261.5" height="30"/>
<g>
	<path style="fill:#00AD00;" d="M287.41,240.09c0,5.52-1.01,10.15-3.04,13.9c-2.03,3.76-4.7,6.75-8.02,9
		c-3.2,2.16-6.8,3.73-10.8,4.73v15.14h-30v-15.54c-1.32-0.3-2.64-0.61-3.96-0.97c-3.49-0.95-6.86-2.07-10.09-3.36
		c-3.24-1.3-6.23-2.76-8.99-4.4l10.86-22.12c3.02,1.89,6.17,3.57,9.45,5.04c2.76,1.29,5.88,2.46,9.38,3.49
		c2.72,0.81,5.49,1.31,8.3,1.48c0.78,0.05,1.58,0.08,2.37,0.08c2.76,0,4.68-0.37,5.76-1.1c1.07-0.74,1.61-1.71,1.61-2.91
		c0-1.3-0.54-2.4-1.61-3.3c-1.08-0.91-2.57-1.71-4.47-2.4c-1.12-0.41-2.34-0.82-3.66-1.22c-0.91-0.29-1.87-0.57-2.87-0.85
		c-2.46-0.69-5.07-1.5-7.83-2.45c-4.05-1.38-7.54-2.87-10.47-4.47c-2.94-1.59-5.35-3.4-7.25-5.43s-3.3-4.34-4.2-6.92
		c-0.91-2.59-1.36-5.57-1.36-8.93c0-5.09,0.92-9.57,2.78-13.45c1.85-3.88,4.38-7.12,7.57-9.71c2.59-2.1,5.49-3.78,8.68-5.06v-13h30
		v12.3c1.47,0.4,2.91,0.83,4.33,1.3c2.98,0.99,5.76,2.07,8.35,3.23c2.58,1.17,4.91,2.27,6.98,3.3l-10.86,20.83
		c-2.59-1.55-5.27-2.93-8.03-4.14c-2.32-1.03-4.93-2-7.82-2.91c-2.72-0.85-5.39-1.31-8-1.35c-0.16-0.01-0.32-0.01-0.48-0.01
		c-2.24,0-4.03,0.35-5.36,1.04c-1.34,0.69-2.01,1.85-2.01,3.49c0,1.21,0.39,2.2,1.16,2.98c0.78,0.77,1.9,1.48,3.37,2.13
		c0.96,0.43,2.07,0.84,3.32,1.25c0.65,0.21,1.33,0.42,2.05,0.63c2.11,0.6,4.5,1.34,7.18,2.2c4.22,1.29,8.04,2.71,11.45,4.27
		c3.4,1.55,6.31,3.38,8.73,5.49c2.41,2.12,4.27,4.68,5.56,7.7C286.77,232.11,287.41,235.78,287.41,240.09z"/>
	<rect y="408.875" style="fill:#00AD00;" width="512" height="30"/>
</g>
<g>
	<path style="fill:#B6EFAB;" d="M512,264.06v116.91H396.16C397.45,317.43,448.6,265.92,512,264.06z"/>
	<path style="fill:#B6EFAB;" d="M512,73.13v115.94c-63.07-1.85-114.03-52.85-115.82-115.94H512z"/>
</g>
<g>
	<path style="fill:#D5F3CB;" d="M115.97,380.97H0V264.05C63.46,265.85,114.68,317.39,115.97,380.97z"/>
	<path style="fill:#D5F3CB;" d="M115.95,73.13C114.16,136.26,63.13,187.29,0,189.08V73.13H115.95z"/>
</g>
<g>
	<path style="fill:#009100;" d="M258.5,199.27c-2.72-0.85-5.39-1.31-8-1.35v-32.56h15.05v12.3c1.47,0.4,2.91,0.83,4.33,1.3
		c2.98,0.99,5.76,2.07,8.35,3.23c2.58,1.17,4.91,2.27,6.98,3.3l-10.86,20.83c-2.59-1.55-5.27-2.93-8.03-4.14
		C264,201.15,261.39,200.18,258.5,199.27z"/>
	<path style="fill:#009100;" d="M287.41,240.09c0,5.52-1.01,10.15-3.04,13.9c-2.03,3.76-4.7,6.75-8.02,9
		c-3.2,2.16-6.8,3.73-10.8,4.73v15.14H250.5v-36.38c0.78,0.05,1.58,0.08,2.37,0.08c2.76,0,4.68-0.37,5.76-1.1
		c1.07-0.74,1.61-1.71,1.61-2.91c0-1.3-0.54-2.4-1.61-3.3c-1.08-0.91-2.57-1.71-4.47-2.4c-1.12-0.41-2.34-0.82-3.66-1.22V208.8
		c0.65,0.21,1.33,0.42,2.05,0.63c2.11,0.6,4.5,1.34,7.18,2.2c4.22,1.29,8.04,2.71,11.45,4.27c3.4,1.55,6.31,3.38,8.73,5.49
		c2.41,2.12,4.27,4.68,5.56,7.7C286.77,232.11,287.41,235.78,287.41,240.09z"/>
</g>
<g>
</g>
<g>
</g>
<g>
</g>
<g>
</g>
<g>
</g>
<g>
</g>
<g>
</g>
<g>
</g>
<g>
</g>
<g>
</g>
<g>
</g>
<g>
</g>
<g>
</g>
<g>
</g>
<g>
</g>
</svg>
