<?xml version="1.0" encoding="iso-8859-1"?>
<!-- Generator: Adobe Illustrator 21.0.0, SVG Export Plug-In . SVG Version: 6.00 Build 0)  -->
<svg version="1.1" id="Capa_1" xmlns="http://www.w3.org/2000/svg" xmlns:xlink="http://www.w3.org/1999/xlink" x="0px" y="0px"
	 viewBox="0 0 512 512" style="enable-background:new 0 0 512 512;" xml:space="preserve">
<path style="fill:#FFEC97;" d="M173.628,45.021c-26.121,0-47.372,21.251-47.372,47.372v66.586H221V92.393
	C221,66.272,199.749,45.021,173.628,45.021z"/>
<path style="fill:#FFDF48;" d="M384.225,57.776h-51.95C315.03,57.776,301,71.806,301,89.051v72.173h114.5V89.051
	C415.5,71.806,401.47,57.776,384.225,57.776z"/>
<path style="fill:#FFAA20;" d="M311,55v113H201V55c0-30.33,24.67-55,55-55S311,24.67,311,55z"/>
<rect x="201" y="77.33" style="fill:#FFDF48;" width="50" height="30"/>
<path style="fill:#FF8900;" d="M311,168h-55V0c30.33,0,55,24.67,55,55V168z"/>
<polygon style="fill:#C8AD92;" points="443.99,512 68.01,512 74.24,434.33 76.64,404.33 97.99,138 414.01,138 435.36,404.33 
	437.76,434.33 "/>
<polygon style="fill:#F0E7DF;" points="437.76,434.33 74.24,434.33 76.64,404.33 435.36,404.33 "/>
<polygon style="fill:#BD9B7B;" points="443.99,512 256,512 256,138 414.01,138 435.36,404.33 437.76,434.33 "/>
<polygon style="fill:#DFCDBD;" points="437.76,434.33 256,434.33 256,404.33 435.36,404.33 "/>
<g>
</g>
<g>
</g>
<g>
</g>
<g>
</g>
<g>
</g>
<g>
</g>
<g>
</g>
<g>
</g>
<g>
</g>
<g>
</g>
<g>
</g>
<g>
</g>
<g>
</g>
<g>
</g>
<g>
</g>
</svg>
