<?xml version="1.0" encoding="iso-8859-1"?>
<!-- Generator: Adobe Illustrator 21.0.0, SVG Export Plug-In . SVG Version: 6.00 Build 0)  -->
<svg version="1.1" id="Capa_1" xmlns="http://www.w3.org/2000/svg" xmlns:xlink="http://www.w3.org/1999/xlink" x="0px" y="0px"
	 viewBox="0 0 512 512" style="enable-background:new 0 0 512 512;" xml:space="preserve">
<path style="fill:#009100;" d="M354.413,74.817c-16.896-9.554-37.201-9.755-54.311-0.545c-14.531,7.81-24.853,21.547-28.32,37.684
	l-21.769,101.162l29.326,6.312l0.316-1.469l6.419,0.723l10.279,10.924l68.933-64.864c11.421-10.743,17.712-25.266,17.712-40.893
	C382.997,103.558,372.041,84.767,354.413,74.817z"/>
<path style="fill:#00AD00;" d="M250.928,216.133l14.663-3.157L243.847,111.97c-3.468-16.194-13.821-29.952-28.391-37.738
	c-17.094-9.159-37.367-8.941-54.22,0.577c-17.641,9.95-28.599,28.742-28.599,49.041c0,15.621,6.285,30.142,17.701,40.893
	l68.394,64.345l10.277-10.924l0,0l6.875-0.637l0.38,1.763l14.662-3.156L250.928,216.133L250.928,216.133z"/>
<path style="fill:#2DD729;" d="M329.202,71.274c0,7.179-1.09,14.359-3.26,21.318l-1.27,4.08l-43.397,139.379l-13.469-4.19
	l-11.809-0.12l-8.279-0.09l-13.459,4.2L189.643,92.613c-6.829-21.898-2.94-45.056,10.649-63.535
	C213.531,11.079,233.759,0.56,255.998,0.03c0.59-0.02,1.19-0.03,1.79-0.03C297.164,0,329.202,31.978,329.202,71.274z"/>
<path style="fill:#FFAA20;" d="M365.729,397.879c-23.578,40.317-60.445,79.724-101.152,108.132l-8.579,5.99l-8.579-5.99
	c-40.707-28.408-77.574-67.815-101.152-108.132c-3.2-5.47-6.12-10.879-8.759-16.239c-5.07-10.239-9.099-20.258-12.109-29.998
	c-3.65-11.819-5.78-23.238-6.379-34.167c-0.6-10.479,0.23-20.508,2.48-29.998c1.26-5.39,2.99-10.609,5.18-15.639
	c13.389-30.818,40.357-52.826,77.984-63.645c25.368-7.299,47.466-7.159,51.336-7.069c3.87-0.09,25.968-0.23,51.336,7.069
	c37.627,10.819,64.595,32.827,77.984,63.645C400.426,306.576,393.647,350.163,365.729,397.879z"/>
<g>
	<path style="fill:#FFEC97;" d="M204.772,287.478v29.998h-85.753c-0.6-10.479,0.23-20.508,2.48-29.998H204.772z"/>
	<path style="fill:#FFEC97;" d="M184.603,351.643v29.998h-47.096c-5.07-10.239-9.099-20.258-12.109-29.998H184.603z"/>
</g>
<path style="fill:#00AD00;" d="M329.202,71.274c0,7.179-1.09,14.359-3.26,21.318l-1.27,4.08l-43.397,139.379l-13.469-4.19
	l-11.809-0.12V0.03c0.59-0.02,1.19-0.03,1.79-0.03C297.164,0,329.202,31.978,329.202,71.274z"/>
<path style="fill:#FF8900;" d="M365.729,397.879c-23.578,40.317-60.445,79.724-101.152,108.132l-8.579,5.99V201.124
	c3.87-0.09,25.968-0.23,51.336,7.069c37.627,10.819,64.595,32.827,77.984,63.645C400.426,306.576,393.647,350.163,365.729,397.879z"
	/>
<g>
</g>
<g>
</g>
<g>
</g>
<g>
</g>
<g>
</g>
<g>
</g>
<g>
</g>
<g>
</g>
<g>
</g>
<g>
</g>
<g>
</g>
<g>
</g>
<g>
</g>
<g>
</g>
<g>
</g>
</svg>
