<?xml version="1.0" encoding="iso-8859-1"?>
<!-- Generator: Adobe Illustrator 21.0.0, SVG Export Plug-In . SVG Version: 6.00 Build 0)  -->
<svg version="1.1" id="Capa_1" xmlns="http://www.w3.org/2000/svg" xmlns:xlink="http://www.w3.org/1999/xlink" x="0px" y="0px"
	 viewBox="0 0 512 512" style="enable-background:new 0 0 512 512;" xml:space="preserve">
<rect y="103.5" style="fill:#F0E7DF;" width="512" height="305"/>
<rect x="256" y="103.5" style="fill:#DFCDBD;" width="256" height="305"/>
<g>
	<rect x="50" y="160.48" style="fill:#B38A65;" width="30" height="192.04"/>
	<rect x="113.67" y="160.48" style="fill:#B38A65;" width="30" height="136.38"/>
	<rect x="177.33" y="160.48" style="fill:#B38A65;" width="30" height="136.38"/>
	<rect x="241" y="160.48" style="fill:#B38A65;" width="30" height="136.38"/>
</g>
<g>
	<rect x="304.67" y="160.48" style="fill:#A17852;" width="30" height="192.04"/>
	<rect x="368.33" y="160.48" style="fill:#A17852;" width="30" height="136.38"/>
	<rect x="432" y="160.48" style="fill:#A17852;" width="30" height="192.04"/>
</g>
<g>
	<rect x="113.67" y="323.3" style="fill:#B38A65;" width="30" height="29.22"/>
	<rect x="177.33" y="323.3" style="fill:#B38A65;" width="30" height="29.22"/>
	<rect x="241" y="323.3" style="fill:#B38A65;" width="30" height="29.22"/>
</g>
<g>
	<rect x="368.33" y="323.3" style="fill:#A17852;" width="30" height="29.22"/>
	<rect x="256" y="160.48" style="fill:#A17852;" width="15" height="136.38"/>
	<rect x="256" y="323.3" style="fill:#A17852;" width="15" height="29.22"/>
</g>
<g>
</g>
<g>
</g>
<g>
</g>
<g>
</g>
<g>
</g>
<g>
</g>
<g>
</g>
<g>
</g>
<g>
</g>
<g>
</g>
<g>
</g>
<g>
</g>
<g>
</g>
<g>
</g>
<g>
</g>
</svg>
