<?xml version="1.0" encoding="iso-8859-1"?>
<!-- Generator: Adobe Illustrator 21.0.0, SVG Export Plug-In . SVG Version: 6.00 Build 0)  -->
<svg version="1.1" id="Capa_1" xmlns="http://www.w3.org/2000/svg" xmlns:xlink="http://www.w3.org/1999/xlink" x="0px" y="0px"
	 viewBox="0 0 512 512" style="enable-background:new 0 0 512 512;" xml:space="preserve">
<rect x="200.18" style="fill:#00A5FF;" width="111.64" height="86.59"/>
<rect x="256" style="fill:#0088FF;" width="55.82" height="86.59"/>
<path style="fill:#CAE8F9;" d="M366.23,139.51c0,19.19-7.68,36.63-20.12,49.4c12.16,8.56,20.12,22.7,20.12,38.67V512H145.77V227.58
	c0-15.97,7.96-30.11,20.12-38.67c-12.44-12.77-20.12-30.21-20.12-49.4V127.4c0-39.05,31.77-70.81,70.82-70.81h78.82
	c39.05,0,70.82,31.76,70.82,70.81V139.51z"/>
<path style="fill:#A3D9F6;" d="M366.23,139.51c0,19.19-7.68,36.63-20.12,49.4c12.16,8.56,20.12,22.7,20.12,38.67V512H256V56.59
	h39.41c39.05,0,70.82,31.76,70.82,70.81V139.51z"/>
<rect x="145.77" y="257" style="fill:#00A5FF;" width="220.46" height="173"/>
<rect x="256" y="257" style="fill:#0088FF;" width="110.23" height="173"/>
<path style="fill:#FFEC97;" d="M304.98,343.5c0,27.01-21.97,48.98-48.98,48.98s-48.98-21.97-48.98-48.98s21.97-48.98,48.98-48.98
	S304.98,316.49,304.98,343.5z"/>
<path style="fill:#FFDF48;" d="M304.98,343.5c0,27.01-21.97,48.98-48.98,48.98v-97.96C283.01,294.52,304.98,316.49,304.98,343.5z"/>
<g>
</g>
<g>
</g>
<g>
</g>
<g>
</g>
<g>
</g>
<g>
</g>
<g>
</g>
<g>
</g>
<g>
</g>
<g>
</g>
<g>
</g>
<g>
</g>
<g>
</g>
<g>
</g>
<g>
</g>
</svg>
