<?xml version="1.0" encoding="iso-8859-1"?>
<!-- Generator: Adobe Illustrator 21.0.0, SVG Export Plug-In . SVG Version: 6.00 Build 0)  -->
<svg version="1.1" id="Capa_1" xmlns="http://www.w3.org/2000/svg" xmlns:xlink="http://www.w3.org/1999/xlink" x="0px" y="0px"
	 viewBox="0 0 512 512" style="enable-background:new 0 0 512 512;" xml:space="preserve">
<rect x="18.51" style="fill:#F0E7DF;" width="347.98" height="512"/>
<rect x="192.5" style="fill:#DFCDBD;" width="173.99" height="512"/>
<polygon style="fill:#FFDB2D;" points="493.49,94.42 493.49,448.84 452.7,512 435.28,512 394.49,448.84 394.49,94.42 "/>
<polygon style="fill:#FFEC97;" points="493.49,448.67 493.49,448.84 452.7,512 435.28,512 394.49,448.84 394.49,448.67 "/>
<g>
	<rect x="394.49" y="94.42" style="fill:#FF4F19;" width="99" height="76.58"/>
	<polygon style="fill:#FF4F19;" points="111.781,141.905 76.677,105.396 98.302,84.604 113.198,100.095 145.906,70.395 
		166.073,92.605 	"/>
	<polygon style="fill:#FF4F19;" points="111.781,237.133 76.677,200.625 98.302,179.832 113.198,195.324 145.906,165.624 
		166.073,187.833 	"/>
	<polygon style="fill:#FF4F19;" points="111.781,332.362 76.677,295.853 98.302,275.06 113.198,290.552 145.906,260.852 
		166.073,283.062 	"/>
	<polygon style="fill:#FF4F19;" points="111.781,427.59 76.677,391.082 98.302,370.289 113.198,385.781 145.906,356.081 
		166.073,378.29 	"/>
</g>
<g>
	<rect x="192.5" y="97" style="fill:#BD9B7B;" width="118" height="30"/>
	<rect x="192.5" y="192" style="fill:#BD9B7B;" width="118" height="30"/>
	<rect x="192.5" y="287" style="fill:#BD9B7B;" width="118" height="30"/>
	<rect x="192.5" y="382" style="fill:#BD9B7B;" width="118" height="30"/>
</g>
<polygon style="fill:#FEC000;" points="493.49,94.42 493.49,448.84 452.7,512 443.99,512 443.99,94.42 "/>
<rect x="443.99" y="94.42" style="fill:#DD2B19;" width="49.5" height="76.58"/>
<polygon style="fill:#FFDF48;" points="443.99,448.67 493.49,448.67 493.49,448.84 452.7,512 443.99,512 "/>
<g>
</g>
<g>
</g>
<g>
</g>
<g>
</g>
<g>
</g>
<g>
</g>
<g>
</g>
<g>
</g>
<g>
</g>
<g>
</g>
<g>
</g>
<g>
</g>
<g>
</g>
<g>
</g>
<g>
</g>
</svg>
