<?xml version="1.0" encoding="iso-8859-1"?>
<!-- Generator: Adobe Illustrator 21.0.0, SVG Export Plug-In . SVG Version: 6.00 Build 0)  -->
<svg version="1.1" id="Capa_1" xmlns="http://www.w3.org/2000/svg" xmlns:xlink="http://www.w3.org/1999/xlink" x="0px" y="0px"
	 viewBox="0 0 512 512" style="enable-background:new 0 0 512 512;" xml:space="preserve">
<rect x="285.66" y="74" style="fill:#FF8900;" width="109.67" height="96.5"/>
<rect x="118" y="48" style="fill:#2DD729;" width="113.83" height="122.5"/>
<rect x="201.83" style="fill:#FFDB2D;" width="113.83" height="170.5"/>
<rect x="201.83" y="61.33" style="fill:#FFEC97;" width="113.83" height="30"/>
<rect x="258.75" style="fill:#FEC000;" width="56.91" height="170.5"/>
<rect x="258.75" y="61.33" style="fill:#FFDF48;" width="56.91" height="30"/>
<rect x="96.26" y="140.5" style="fill:#C8AD92;" width="319.48" height="371.5"/>
<rect x="258.75" y="140.5" style="fill:#BD9B7B;" width="156.99" height="371.5"/>
<g>
	<rect x="96.26" y="410.7" style="fill:#F0E7DF;" width="319.48" height="30"/>
	<path style="fill:#F0E7DF;" d="M339,200v28.35c0,44.85-35.75,81.5-80.25,82.95c-0.91,0.03-1.83,0.05-2.75,0.05
		c-45.77,0-83-37.23-83-83V200h30v28.35c0,29.22,23.78,53,53,53c0.92,0,1.84-0.02,2.75-0.07c27.95-1.44,50.25-24.63,50.25-52.93V200
		H339z"/>
</g>
<g>
	<path style="fill:#DFCDBD;" d="M258.75,311.3v-30.02c27.95-1.44,50.25-24.63,50.25-52.93V200h30v28.35
		C339,273.2,303.25,309.85,258.75,311.3z"/>
	<rect x="258.75" y="410.7" style="fill:#DFCDBD;" width="156.99" height="30"/>
</g>
<g>
</g>
<g>
</g>
<g>
</g>
<g>
</g>
<g>
</g>
<g>
</g>
<g>
</g>
<g>
</g>
<g>
</g>
<g>
</g>
<g>
</g>
<g>
</g>
<g>
</g>
<g>
</g>
<g>
</g>
</svg>
