<?xml version="1.0" encoding="utf-8"?>
<!-- Generator: Adobe Illustrator 23.0.3, SVG Export Plug-In . SVG Version: 6.00 Build 0)  -->
<svg version="1.1" id="Layer_1" xmlns="http://www.w3.org/2000/svg" xmlns:xlink="http://www.w3.org/1999/xlink" x="0px" y="0px"
	 viewBox="0 0 260.7 127.3" style="enable-background:new 0 0 260.7 127.3;" xml:space="preserve">
<style type="text/css">
	.st0{fill-rule:evenodd;clip-rule:evenodd;fill:#B1C1DF;}
</style>
<path class="st0" d="M235.1,107.2v-9.8h25.6v9.8H235.1z M207,75.5c-15.5,0-28,12-28,27.5c0,1.6,0.3,4.2,0.4,4.2h-23h-3.9h-68
	c0.4,0,0.4-2.6,0.4-4.2c0-11.1-6.8-20.1-16.1-24.7l83.7-0.1V11.8c15.7,0,31.5,0,31.7,0c4,0,7.4,0.3,9.5,2.7
	c7.6,8.9,30,36.9,30.1,36.3c9.3,3.1,21.8,8.2,25.8,9.9c5.4,2.3,5.3,6.3,5.3,6.3c0,0,0,12.6,0,24.4h-22.7
	C227.5,81.6,218,75.5,207,75.5z M156.4,63.4c0,0.4,1.8,0.5,2.5,0.5h9.6c0.7,0,1.7-0.2,1.7-0.5v-5.6c0-0.4-1,0.2-1.7,0.2h-9.6
	c-0.7,0-2.5-0.6-2.5-0.2V63.4z M213.7,46.1c-1.3-3.3-17.3-21.1-20.7-25c-1.9-2.2-3.5-4.4-6.5-4.4c-0.6,0-23.3,0-23.3,0
	c-2.7,0-6.8,3.4-6.8,6.1v24.5c0,2.7,4.1,2.8,6.8,2.8h45.6C213.4,50.2,215,49.4,213.7,46.1z M0,0h145.6v72.8H0V0z M97.4,10l-7.3,3.4
	l-4,7.5l-8.7,8.7l3.5,3.4l8.5-8.9l7.5-3.6l3.7-7.2L97.4,10z M83.4,60.8c1.8,1.6,6.1,4.3,11.3,1.9c-2.8-2.8-7.3-7.4-7.3-7.4
	S86,52.8,88.3,51c0.7-0.4,2.2-2.1,5.1,0.6c2.8,3,6.1,6.2,6.1,6.2s3.3-6.8-2.4-11.6c-3-2.2-5.3-2.8-10.1-1.7
	C84.4,41.7,66,23.6,66,23.6s2.6-7.4-2.5-11.1c-2.6-1.8-5.5-3.4-10.9-1.6c3.7,3.6,7.1,7.2,7.1,7.2s1.6,2.4-0.8,4.5
	c-1,0.7-2.5,1.5-4.8-0.2c-2-1.8-6.3-6.6-6.3-6.6s-3,6.8,1.8,11.3c1.9,1.5,6.1,4,10.7,2.2l20.9,20.9C81.1,50.2,78.9,56.8,83.4,60.8z
	 M48.1,62.4c3,3,6.2,0.3,6.2,0.3l17.4-17.1l-7.2-7.1c0,0-14.8,15-17,17.4C45.4,58.3,47.1,61.4,48.1,62.4z M29.2,103
	c0,1.6,0.4,4.2,0.7,4.2H16.2l-0.1-29.4l28.8,0.3C35.6,82.6,29.2,91.9,29.2,103z M57.2,80.5c12.9,0,23.4,10.5,23.4,23.4
	c0,3.5-0.8,6.8-2.1,9.8c-3.7,8-11.8,13.6-21.3,13.6c-9.4,0-17.6-5.6-21.3-13.6c-1.4-3-2.1-6.3-2.1-9.8C33.8,91,44.3,80.5,57.2,80.5z
	 M57.2,118.4c8,0,14.5-6.5,14.5-14.5c0-8-6.5-14.5-14.5-14.5c-8,0-14.5,6.5-14.5,14.5C42.7,111.9,49.2,118.4,57.2,118.4z M207,80.5
	c12.9,0,23.4,10.5,23.4,23.4c0,3.5-0.8,6.8-2.1,9.8c-3.7,8-11.8,13.6-21.3,13.6c-9.4,0-17.6-5.6-21.3-13.6c-1.4-3-2.1-6.3-2.1-9.8
	C183.6,91,194.1,80.5,207,80.5z M207,118.4c8,0,14.5-6.5,14.5-14.5c0-8-6.5-14.5-14.5-14.5c-8,0-14.5,6.5-14.5,14.5
	C192.5,111.9,199,118.4,207,118.4z"/>
</svg>
